<?xml version="1.0" encoding="UTF-8" standalone="no"?>
<!-- Created with Inkscape (http://www.inkscape.org/) -->

<svg
   xmlns:dc="http://purl.org/dc/elements/1.1/"
   xmlns:cc="http://creativecommons.org/ns#"
   xmlns:rdf="http://www.w3.org/1999/02/22-rdf-syntax-ns#"
   xmlns:svg="http://www.w3.org/2000/svg"
   xmlns="http://www.w3.org/2000/svg"
   xmlns:sodipodi="http://sodipodi.sourceforge.net/DTD/sodipodi-0.dtd"
   xmlns:inkscape="http://www.inkscape.org/namespaces/inkscape"
   width="600mm"
   height="300mm"
   viewBox="0 0 2125.9842 1062.9921"
   id="svg2"
   version="1.1"
   inkscape:version="0.92.2 5c3e80d, 2017-08-06"
   sodipodi:docname="batman-klein.svg">
  <defs
     id="defs4" />
  <sodipodi:namedview
     id="base"
     pagecolor="#ffffff"
     bordercolor="#666666"
     borderopacity="1.0"
     inkscape:pageopacity="0.0"
     inkscape:pageshadow="2"
     inkscape:zoom="0.37907154"
     inkscape:cx="335.92856"
     inkscape:cy="728.94011"
     inkscape:document-units="mm"
     inkscape:current-layer="layer1"
     showgrid="false"
     units="mm"
     width="600in"
     inkscape:window-width="1280"
     inkscape:window-height="719"
     inkscape:window-x="0"
     inkscape:window-y="1"
     inkscape:window-maximized="1"
     inkscape:snap-global="false"
     objecttolerance="10000"
     guidetolerance="10000"
     inkscape:snap-perpendicular="true"
     inkscape:snap-tangential="true" />
  <metadata
     id="metadata7">
    <rdf:RDF>
      <cc:Work
         rdf:about="">
        <dc:format>image/svg+xml</dc:format>
        <dc:type
           rdf:resource="http://purl.org/dc/dcmitype/StillImage" />
        <dc:title></dc:title>
      </cc:Work>
    </rdf:RDF>
  </metadata>
  <g
     inkscape:label="Ebene 1"
     inkscape:groupmode="layer"
     id="layer1"
     transform="translate(0,10.627025)">
    <path
       style="fill:none;stroke:#000000;stroke-width:0.32331723;stroke-opacity:1"
       d="m 178.19606,196.05811 c -0.18108,-0.22227 -1.16061,-3.02301 -2.17673,-6.22383 -5.80109,-18.27378 -10.43883,-26.98284 -18.71157,-35.13785 -3.16861,-3.12352 -6.01048,-5.21981 -9.25345,-6.82575 -2.70215,-1.33812 -2.80507,-1.36092 -6.14303,-1.36092 -3.2555,0 -3.49477,0.0488 -5.83002,1.19067 -4.93529,2.41308 -9.12359,7.45939 -12.06498,14.53659 -1.67646,4.03368 -2.57374,5.47909 -3.08217,4.96504 -0.17587,-0.17782 -0.97918,-1.63275 -1.78513,-3.23317 -1.69118,-3.35833 -5.07759,-7.55089 -10.58325,-13.10269 -6.95376,-7.01206 -13.231943,-10.98347 -20.516367,-12.97811 -3.390898,-0.92851 -9.9411,-1.00379 -13.036744,-0.14984 -2.850715,0.78639 -6.260037,2.56085 -7.997752,4.16262 -3.019858,2.78361 -4.097919,5.84004 -4.077512,11.56021 0.02577,7.22641 2.358077,14.51206 7.220329,22.55499 2.816022,4.65815 3.234871,5.5736 2.550081,5.5736 -0.715424,0 -16.537578,-8.18152 -20.754384,-10.73194 -5.530219,-3.34481 -9.095721,-5.85213 -15.105035,-10.62211 -8.696376,-6.90287 -15.702695,-13.16007 -16.998231,-15.18079 -0.39903,-0.62238 -1.969976,-2.54301 -3.490991,-4.26807 C 11.221863,134.96034 8.1229459,130.26978 5.3426872,124.11212 1.1342217,114.7913 0.17717885,109.91021 0.16183542,97.688856 0.14693621,85.817666 1.0564911,81.452446 5.5349843,71.901546 9.7715223,62.866646 12.183944,58.990366 16.882236,53.668806 28.036061,41.035346 40.658176,30.931766 55.373791,22.857626 67.148514,16.397086 87.479274,8.1122864 98.26346,5.3800264 c 2.04498,-0.51811 4.5911,-1.24676 5.65805,-1.61923 4.50989,-1.57436 9.23596,-2.36222 9.69683,-1.61651 0.4006,0.64817 -0.47641,2.65415 -2.01768,4.61503 -2.00878,2.55568 -3.40739,4.8992596 -5.84174,9.7886796 -6.562553,13.18103 -8.03408,19.15964 -7.716202,31.35002 0.184155,7.06206 0.616545,9.64536 2.466242,14.73458 3.2221,8.86516 10.04593,15.59979 18.83555,18.58934 3.90596,1.3285 7.35117,0.9679 11.73565,-1.22834 7.29806,-3.65569 12.5419,-10.25443 15.15225,-19.06727 1.5903,-5.36904 2.20326,-9.27081 3.11335,-19.81798 0.36825,-4.26778 1.16563,-12.12439 1.77195,-17.45912 0.60631,-5.33474 1.33566,-12.08854 1.62076,-15.0084596 0.28511,-2.91991 0.63396,-5.51546 0.77523,-5.7679 0.33013,-0.58991 2.25672,1.54585 7.57319,8.3954096 l 3.94157,5.07818 13.61331,0.0141 13.6133,0.0141 1.40202,-2.02073 c 2.06778,-2.98032 3.52927,-4.7202496 4.13575,-4.9236796 0.29551,-0.0991 0.79186,-0.7232 1.103,-1.38684 0.56647,-1.20823 4.28497,-5.57139 4.74822,-5.57139 0.35584,0 0.89887,4.26058 1.64832,12.9326896 0.72668,8.40863 3.26475,32.33791 4.04656,38.15143 0.63992,4.75853 3.19853,12.65251 4.98883,15.39186 5.38886,8.24553 11.97614,12.73673 18.68106,12.73673 5.21777,0 11.01649,-2.61526 15.6853,-7.07416 3.01092,-2.87555 4.90242,-5.41675 6.67341,-8.96562 3.19547,-6.4034 3.90788,-9.60908 3.90788,-17.58432 0,-12.70697 -1.38448,-18.57673 -6.97797,-29.58441 -4.62264,-9.0970696 -6.7523,-12.7733496 -8.08767,-13.9611096 -1.59013,-1.41437 -1.40817,-2.23654 0.46824,-2.11573 2.38002,0.15322 19.75833,5.33897 27.4779,8.1994996 25.80809,9.56333 47.77129,23.44654 62.28877,39.37349 5.40055,5.92485 7.28607,8.31457 9.58795,12.15167 2.95742,4.92994 7.28121,13.82037 8.31965,17.1067 1.71801,5.43696 1.81675,6.50147 1.81675,19.5898 0,13.544974 0.008,13.484564 -2.63727,20.207334 -1.68132,4.27315 -6.3326,13.59682 -7.93515,15.90633 -7.99475,11.52163 -20.75067,23.57947 -34.04537,32.1823 -6.69225,4.33046 -23.48748,13.24077 -23.99715,12.7311 -0.13682,-0.13683 0.23092,-1.07388 0.81722,-2.08234 2.05978,-3.54292 5.85844,-11.56515 6.91552,-14.6046 1.04636,-3.00858 1.06742,-3.17749 1.02825,-8.24458 -0.0587,-7.58983 -0.69017,-9.60908 -4.07774,-13.03919 -2.99475,-3.03236 -8.1901,-4.90492 -13.60847,-4.90492 -8.95289,0 -19.18669,4.77388 -27.01464,12.60184 -3.44513,3.44512 -9.20468,10.85484 -12.50654,16.08973 -0.70002,1.10985 -1.35325,2.01918 -1.45162,2.02074 -0.0984,0.002 -0.4987,-0.99027 -0.88963,-2.20406 -0.9681,-3.00586 -3.37876,-7.88127 -5.06609,-10.24585 -2.0548,-2.87955 -5.60505,-6.08299 -8.01757,-7.23439 -1.14075,-0.54442 -3.07896,-1.1603 -4.30712,-1.3686 -4.09432,-0.69444 -8.69305,0.98404 -14.32655,5.22902 -7.15208,5.38924 -13.37697,14.28917 -17.85388,25.52623 -2.7175,6.82096 -4.39442,11.90788 -5.00858,15.19344 -0.68893,3.68561 -1.1563,4.50223 -1.9906,3.47813 z"
       id="path61"
       inkscape:connector-curvature="0" />
    <path
       style="fill:none;stroke:#000000;stroke-width:0.32331723;stroke-opacity:1"
       d="m 190.58378,398.88443 c -0.18108,-0.22227 -1.16061,-3.02301 -2.17673,-6.22383 -5.80109,-18.27378 -10.43883,-26.98284 -18.71157,-35.13785 -3.16861,-3.12352 -6.01048,-5.21981 -9.25345,-6.82575 -2.70215,-1.33812 -2.80507,-1.36092 -6.14303,-1.36092 -3.2555,0 -3.49477,0.0488 -5.83002,1.19067 -4.93529,2.41308 -9.12359,7.45939 -12.06498,14.53659 -1.67646,4.03368 -2.57374,5.47909 -3.08217,4.96504 -0.17587,-0.17782 -0.97918,-1.63275 -1.78513,-3.23317 -1.69118,-3.35833 -5.07759,-7.55089 -10.58325,-13.10269 -6.95376,-7.01206 -13.23194,-10.98347 -20.51637,-12.97811 -3.3909,-0.92851 -9.9411,-1.00379 -13.03674,-0.14984 -2.85071,0.78639 -6.26004,2.56085 -7.99775,4.16262 -3.01986,2.78361 -4.09792,5.84004 -4.07751,11.56021 0.0258,7.22641 2.35807,14.51206 7.22033,22.55499 2.81602,4.65815 3.23486,5.5736 2.55008,5.5736 -0.71543,0 -16.53758,-8.18152 -20.75439,-10.73194 -5.53022,-3.34481 -9.09572,-5.85213 -15.10503,-10.62211 -8.69638,-6.90287 -15.7027,-13.16007 -16.99823,-15.18079 -0.39903,-0.62238 -1.96998,-2.54301 -3.49099,-4.26807 -5.13726,-5.82642 -8.23618,-10.51698 -11.01644,-16.67464 -4.20847,-9.32082 -5.16551,-14.20191 -5.18085,-26.42326 -0.0149,-11.87119 0.89465,-16.23641 5.37315,-25.78731 4.23653,-9.0349 6.64896,-12.91118 11.34725,-18.23274 11.15382,-12.63346 23.77594,-22.73704 38.49155,-30.81118 11.77473,-6.46054 32.10548,-14.74534 42.88967,-17.4776 2.04498,-0.51811 4.5911,-1.24676 5.65805,-1.61923 4.50989,-1.57436 9.23596,-2.36222 9.69683,-1.61651 0.4006,0.64817 -0.47641,2.65415 -2.01768,4.61503 -2.00878,2.55568 -3.40739,4.89926 -5.84174,9.78868 -6.56255,13.18103 -8.03408,19.15964 -7.7162,31.35002 0.18415,7.06206 0.61654,9.64536 2.46624,14.73458 3.2221,8.86516 10.04593,15.59979 18.83555,18.58934 3.90596,1.3285 7.35117,0.9679 11.73565,-1.22834 7.29806,-3.65569 12.5419,-10.25443 15.15225,-19.06727 1.5903,-5.36904 2.20326,-9.27081 3.11335,-19.81798 0.36825,-4.26778 1.16563,-12.12439 1.77195,-17.45912 0.60631,-5.33474 1.33566,-12.08854 1.62076,-15.00846 0.28511,-2.91991 0.63396,-5.51546 0.77523,-5.7679 0.33013,-0.58991 2.25672,1.54585 7.57319,8.39541 l 3.94157,5.07818 13.61331,0.0141 13.6133,0.0141 1.40202,-2.02073 c 2.06778,-2.98032 3.52927,-4.72025 4.13575,-4.92368 0.29551,-0.0991 0.79186,-0.7232 1.103,-1.38684 0.56647,-1.20823 4.28497,-5.57139 4.74822,-5.57139 0.35584,0 0.89887,4.26058 1.64832,12.93269 0.72668,8.40863 3.26475,32.33791 4.04656,38.15143 0.63992,4.75853 3.19853,12.65251 4.98883,15.39186 5.38886,8.24553 11.97614,12.73673 18.68106,12.73673 5.21777,0 11.01649,-2.61526 15.6853,-7.07416 3.01092,-2.87555 4.90242,-5.41675 6.67341,-8.96562 3.19547,-6.4034 3.90788,-9.60908 3.90788,-17.58432 0,-12.70697 -1.38448,-18.57673 -6.97797,-29.58441 -4.62264,-9.09707 -6.7523,-12.77335 -8.08767,-13.96111 -1.59013,-1.41437 -1.40817,-2.23654 0.46824,-2.11573 2.38002,0.15322 19.75833,5.33897 27.4779,8.1995 25.80809,9.56333 47.77129,23.44654 62.28877,39.37349 5.40055,5.92485 7.28607,8.31457 9.58795,12.15167 2.95742,4.92994 7.28121,13.82037 8.31965,17.1067 1.71801,5.43696 1.81675,6.50147 1.81675,19.5898 0,13.54497 0.008,13.48456 -2.63727,20.20733 -1.68132,4.27315 -6.3326,13.59682 -7.93515,15.90633 -7.99475,11.52163 -20.75067,23.57947 -34.04537,32.1823 -6.69225,4.33046 -23.48748,13.24077 -23.99715,12.7311 -0.13682,-0.13683 0.23092,-1.07388 0.81722,-2.08234 2.05978,-3.54292 5.85844,-11.56515 6.91552,-14.6046 1.04636,-3.00858 1.06742,-3.17749 1.02825,-8.24458 -0.0587,-7.58983 -0.69017,-9.60908 -4.07774,-13.03919 -2.99475,-3.03236 -8.1901,-4.90492 -13.60847,-4.90492 -8.95289,0 -19.18669,4.77388 -27.01464,12.60184 -3.44513,3.44512 -9.20468,10.85484 -12.50654,16.08973 -0.70002,1.10985 -1.35325,2.01918 -1.45162,2.02074 -0.0984,0.002 -0.4987,-0.99027 -0.88963,-2.20406 -0.9681,-3.00586 -3.37876,-7.88127 -5.06609,-10.24585 -2.0548,-2.87955 -5.60505,-6.08299 -8.01757,-7.23439 -1.14075,-0.54442 -3.07896,-1.1603 -4.30712,-1.3686 -4.09432,-0.69444 -8.69305,0.98404 -14.32655,5.22902 -7.15208,5.38924 -13.37697,14.28917 -17.85388,25.52623 -2.7175,6.82096 -4.39442,11.90788 -5.00858,15.19344 -0.68893,3.68561 -1.1563,4.50223 -1.9906,3.47813 z"
       id="path17"
       inkscape:connector-curvature="0" />
    <path
       style="fill:none;stroke:#000000;stroke-width:0.32331723;stroke-opacity:1"
       d="m 187.35137,586.84367 c -0.18108,-0.22227 -1.16061,-3.02301 -2.17673,-6.22383 -5.80109,-18.27378 -10.43883,-26.98284 -18.71157,-35.13785 -3.16861,-3.12352 -6.01048,-5.21981 -9.25345,-6.82575 -2.70215,-1.33812 -2.80507,-1.36092 -6.14303,-1.36092 -3.2555,0 -3.49477,0.0488 -5.83002,1.19067 -4.93529,2.41308 -9.12359,7.45939 -12.06498,14.53659 -1.67646,4.03368 -2.57374,5.47909 -3.08217,4.96504 -0.17587,-0.17782 -0.97918,-1.63275 -1.78513,-3.23317 -1.69118,-3.35833 -5.07759,-7.55089 -10.58325,-13.10269 -6.95376,-7.01206 -13.23194,-10.98347 -20.51637,-12.97811 -3.3909,-0.92851 -9.9411,-1.00379 -13.03674,-0.14984 -2.85071,0.78639 -6.26004,2.56085 -7.99775,4.16262 -3.01986,2.78361 -4.09792,5.84004 -4.07751,11.56021 0.0258,7.22641 2.35807,14.51206 7.22033,22.55499 2.81602,4.65815 3.23486,5.5736 2.55008,5.5736 -0.71543,0 -16.53758,-8.18152 -20.75439,-10.73194 -5.53022,-3.34481 -9.09572,-5.85213 -15.10503,-10.62211 -8.69638,-6.90287 -15.7027,-13.16007 -16.99823,-15.18079 -0.39903,-0.62238 -1.96998,-2.54301 -3.49099,-4.26807 C 20.37718,525.7459 17.27826,521.05534 14.498,514.89768 10.28953,505.57686 9.3324901,500.69577 9.3171501,488.47442 9.3022501,476.60323 10.2118,472.23801 14.6903,462.68711 c 4.23653,-9.0349 6.64896,-12.91118 11.34725,-18.23274 11.15382,-12.63346 23.77594,-22.73704 38.49155,-30.81118 11.77473,-6.46054 32.10548,-14.74534 42.88967,-17.4776 2.04498,-0.51811 4.5911,-1.24676 5.65805,-1.61923 4.50989,-1.57436 9.23596,-2.36222 9.69683,-1.61651 0.4006,0.64817 -0.47641,2.65415 -2.01768,4.61503 -2.00878,2.55568 -3.40739,4.89926 -5.84174,9.78868 -6.56255,13.18103 -8.03408,19.15964 -7.7162,31.35002 0.18415,7.06206 0.61654,9.64536 2.46624,14.73458 3.2221,8.86516 10.04593,15.59979 18.83555,18.58934 3.90596,1.3285 7.35117,0.9679 11.73565,-1.22834 7.29806,-3.65569 12.5419,-10.25443 15.15225,-19.06727 1.5903,-5.36904 2.20326,-9.27081 3.11335,-19.81798 0.36825,-4.26778 1.16563,-12.12439 1.77195,-17.45912 0.60631,-5.33474 1.33566,-12.08854 1.62076,-15.00846 0.28511,-2.91991 0.63396,-5.51546 0.77523,-5.7679 0.33013,-0.58991 2.25672,1.54585 7.57319,8.39541 l 3.94157,5.07818 13.61331,0.0141 13.6133,0.0141 1.40202,-2.02073 c 2.06778,-2.98032 3.52927,-4.72025 4.13575,-4.92368 0.29551,-0.0991 0.79186,-0.7232 1.103,-1.38684 0.56647,-1.20823 4.28497,-5.57139 4.74822,-5.57139 0.35584,0 0.89887,4.26058 1.64832,12.93269 0.72668,8.40863 3.26475,32.33791 4.04656,38.15143 0.63992,4.75853 3.19853,12.65251 4.98883,15.39186 5.38886,8.24553 11.97614,12.73673 18.68106,12.73673 5.21777,0 11.01649,-2.61526 15.6853,-7.07416 3.01092,-2.87555 4.90242,-5.41675 6.67341,-8.96562 3.19547,-6.4034 3.90788,-9.60908 3.90788,-17.58432 0,-12.70697 -1.38448,-18.57673 -6.97797,-29.58441 -4.62264,-9.09707 -6.7523,-12.77335 -8.08767,-13.96111 -1.59013,-1.41437 -1.40817,-2.23654 0.46824,-2.11573 2.38002,0.15322 19.75833,5.33897 27.4779,8.1995 25.80809,9.56333 47.77129,23.44654 62.28877,39.37349 5.40055,5.92485 7.28607,8.31457 9.58795,12.15167 2.95742,4.92994 7.28121,13.82037 8.31965,17.1067 1.71801,5.43696 1.81675,6.50147 1.81675,19.5898 0,13.54497 0.008,13.48456 -2.63727,20.20733 -1.68132,4.27315 -6.3326,13.59682 -7.93515,15.90633 -7.99475,11.52163 -20.75067,23.57947 -34.04537,32.1823 -6.69225,4.33046 -23.48748,13.24077 -23.99715,12.7311 -0.13682,-0.13683 0.23092,-1.07388 0.81722,-2.08234 2.05978,-3.54292 5.85844,-11.56515 6.91552,-14.6046 1.04636,-3.00858 1.06742,-3.17749 1.02825,-8.24458 -0.0587,-7.58983 -0.69017,-9.60908 -4.07774,-13.03919 -2.99475,-3.03236 -8.1901,-4.90492 -13.60847,-4.90492 -8.95289,0 -19.18669,4.77388 -27.01464,12.60184 -3.44513,3.44512 -9.20468,10.85484 -12.50654,16.08973 -0.70002,1.10985 -1.35325,2.01918 -1.45162,2.02074 -0.0984,0.002 -0.4987,-0.99027 -0.88963,-2.20406 -0.9681,-3.00586 -3.37876,-7.88127 -5.06609,-10.24585 -2.0548,-2.87955 -5.60505,-6.08299 -8.01757,-7.23439 -1.14075,-0.54442 -3.07896,-1.1603 -4.30712,-1.3686 -4.09432,-0.69444 -8.69305,0.98404 -14.32655,5.22902 -7.15208,5.38924 -13.37697,14.28917 -17.85388,25.52623 -2.7175,6.82096 -4.39442,11.90788 -5.00858,15.19344 -0.68893,3.68561 -1.1563,4.50223 -1.9906,3.47813 z"
       id="path21"
       inkscape:connector-curvature="0" />
    <path
       inkscape:connector-curvature="0"
       id="path15"
       d="m 541.77078,191.14001 c -0.18108,-0.22227 -1.16061,-3.02301 -2.17673,-6.22383 -5.80109,-18.27378 -10.43883,-26.98284 -18.71157,-35.13785 -3.16861,-3.12352 -6.01048,-5.21981 -9.25345,-6.82575 -2.70215,-1.33812 -2.80507,-1.36092 -6.14303,-1.36092 -3.2555,0 -3.49477,0.0488 -5.83002,1.19067 -4.93529,2.41308 -9.12359,7.45939 -12.06498,14.53659 -1.67646,4.03368 -2.57374,5.47909 -3.08217,4.96504 -0.17587,-0.17782 -0.97918,-1.63275 -1.78513,-3.23317 -1.69118,-3.35833 -5.07759,-7.55089 -10.58325,-13.10269 -6.95376,-7.01206 -13.23194,-10.98347 -20.51637,-12.97811 -3.3909,-0.92851 -9.9411,-1.00379 -13.03674,-0.14984 -2.85071,0.78639 -6.26004,2.56085 -7.99775,4.16262 -3.01986,2.78361 -4.09792,5.84004 -4.07751,11.56021 0.0258,7.22641 2.35807,14.51206 7.22033,22.55499 2.81602,4.65815 3.23486,5.5736 2.55008,5.5736 -0.71543,0 -16.53758,-8.18152 -20.75439,-10.73194 -5.53022,-3.34481 -9.09572,-5.85213 -15.10503,-10.62211 -8.69638,-6.90287 -15.7027,-13.16007 -16.99823,-15.18079 -0.39903,-0.62238 -1.96998,-2.54301 -3.49099,-4.26807 -5.13726,-5.82642 -8.23618,-10.51698 -11.01644,-16.67464 -4.20847,-9.32082 -5.16551,-14.20191 -5.18085,-26.42326 -0.0149,-11.87119 0.89465,-16.23641 5.37315,-25.78731 4.23653,-9.0349 6.64896,-12.91118 11.34725,-18.23274 11.15382,-12.63346 23.77594,-22.73704 38.49155,-30.81118 11.77473,-6.46054 32.10548,-14.7453394 42.88967,-17.47759937 2.04498,-0.51811 4.5911,-1.24676 5.65805,-1.61923003 4.50989,-1.57436 9.23596,-2.36222 9.69683,-1.61651 0.4006,0.64817 -0.47641,2.65415003 -2.01768,4.61503 -2.00878,2.55568 -3.40739,4.8992596 -5.84174,9.7886794 -6.56255,13.18103 -8.03408,19.15964 -7.7162,31.35002 0.18415,7.06206 0.61654,9.64536 2.46624,14.73458 3.2221,8.86516 10.04593,15.59979 18.83555,18.58934 3.90596,1.3285 7.35117,0.9679 11.73565,-1.22834 7.29806,-3.65569 12.5419,-10.25443 15.15225,-19.06727 1.5903,-5.36904 2.20326,-9.27081 3.11335,-19.81798 0.36825,-4.26778 1.16563,-12.12439 1.77195,-17.45912 0.60631,-5.33474 1.33566,-12.0885398 1.62076,-15.0084594 0.28511,-2.91990997 0.63396,-5.51546 0.77523,-5.7679 0.33013,-0.58991 2.25672,1.54585003 7.57319,8.3954096 l 3.94157,5.0781798 13.61331,0.0141 13.6133,0.0141 1.40202,-2.0207298 c 2.06778,-2.98032 3.52927,-4.7202496 4.13575,-4.9236796 0.29551,-0.0991 0.79186,-0.7232 1.103,-1.38684 0.56647,-1.20823 4.28497,-5.57139 4.74822,-5.57139 0.35584,0 0.89887,4.26058 1.64832,12.9326894 0.72668,8.40863 3.26475,32.33791 4.04656,38.15143 0.63992,4.75853 3.19853,12.65251 4.98883,15.39186 5.38886,8.24553 11.97614,12.73673 18.68106,12.73673 5.21777,0 11.01649,-2.61526 15.6853,-7.07416 3.01092,-2.87555 4.90242,-5.41675 6.67341,-8.96562 3.19547,-6.4034 3.90788,-9.60908 3.90788,-17.58432 0,-12.70697 -1.38448,-18.57673 -6.97797,-29.58441 -4.62264,-9.0970694 -6.7523,-12.77334937 -8.08767,-13.96110937 -1.59013,-1.41437003 -1.40817,-2.23654003 0.46824,-2.11573003 2.38002,0.15322 19.75833,5.33897 27.4779,8.1994996 25.80809,9.5633298 47.77129,23.4465398 62.28877,39.3734898 5.40055,5.92485 7.28607,8.31457 9.58795,12.15167 2.95742,4.92994 7.28121,13.82037 8.31965,17.1067 1.71801,5.43696 1.81675,6.50147 1.81675,19.5898 0,13.54497 0.008,13.48456 -2.63727,20.20733 -1.68132,4.27315 -6.3326,13.59682 -7.93515,15.90633 -7.99475,11.52163 -20.75067,23.57947 -34.04537,32.1823 -6.69225,4.33046 -23.48748,13.24077 -23.99715,12.7311 -0.13682,-0.13683 0.23092,-1.07388 0.81722,-2.08234 2.05978,-3.54292 5.85844,-11.56515 6.91552,-14.6046 1.04636,-3.00858 1.06742,-3.17749 1.02825,-8.24458 -0.0587,-7.58983 -0.69017,-9.60908 -4.07774,-13.03919 -2.99475,-3.03236 -8.1901,-4.90492 -13.60847,-4.90492 -8.95289,0 -19.18669,4.77388 -27.01464,12.60184 -3.44513,3.44512 -9.20468,10.85484 -12.50654,16.08973 -0.70002,1.10985 -1.35325,2.01918 -1.45162,2.02074 -0.0984,0.002 -0.4987,-0.99027 -0.88963,-2.20406 -0.9681,-3.00586 -3.37876,-7.88127 -5.06609,-10.24585 -2.0548,-2.87955 -5.60505,-6.08299 -8.01757,-7.23439 -1.14075,-0.54442 -3.07896,-1.1603 -4.30712,-1.3686 -4.09432,-0.69444 -8.69305,0.98404 -14.32655,5.22902 -7.15208,5.38924 -13.37697,14.28917 -17.85388,25.52623 -2.7175,6.82096 -4.39442,11.90788 -5.00858,15.19344 -0.68893,3.68561 -1.1563,4.50223 -1.9906,3.47813 z"
       style="fill:none;stroke:#000000;stroke-width:0.32331723;stroke-opacity:1" />
    <path
       inkscape:connector-curvature="0"
       id="path19"
       d="m 551.66337,398.88443 c -0.18108,-0.22227 -1.16061,-3.02301 -2.17673,-6.22383 -5.80109,-18.27378 -10.43883,-26.98284 -18.71157,-35.13785 -3.16861,-3.12352 -6.01048,-5.21981 -9.25345,-6.82575 -2.70215,-1.33812 -2.80507,-1.36092 -6.14303,-1.36092 -3.2555,0 -3.49477,0.0488 -5.83002,1.19067 -4.93529,2.41308 -9.12359,7.45939 -12.06498,14.53659 -1.67646,4.03368 -2.57374,5.47909 -3.08217,4.96504 -0.17587,-0.17782 -0.97918,-1.63275 -1.78513,-3.23317 -1.69118,-3.35833 -5.07759,-7.55089 -10.58325,-13.10269 -6.95376,-7.01206 -13.23194,-10.98347 -20.51637,-12.97811 -3.3909,-0.92851 -9.9411,-1.00379 -13.03674,-0.14984 -2.85071,0.78639 -6.26004,2.56085 -7.99775,4.16262 -3.01986,2.78361 -4.09792,5.84004 -4.07751,11.56021 0.0258,7.22641 2.35807,14.51206 7.22033,22.55499 2.81602,4.65815 3.23486,5.5736 2.55008,5.5736 -0.71543,0 -16.53758,-8.18152 -20.75439,-10.73194 -5.53022,-3.34481 -9.09572,-5.85213 -15.10503,-10.62211 -8.69638,-6.90287 -15.7027,-13.16007 -16.99823,-15.18079 -0.39903,-0.62238 -1.96998,-2.54301 -3.49099,-4.26807 -5.13726,-5.82642 -8.23618,-10.51698 -11.01644,-16.67464 -4.20847,-9.32082 -5.16551,-14.20191 -5.18085,-26.42326 -0.0149,-11.87119 0.89465,-16.23641 5.37315,-25.78731 4.23653,-9.0349 6.64896,-12.91118 11.34725,-18.23274 11.15382,-12.63346 23.77594,-22.73704 38.49155,-30.81118 11.77473,-6.46054 32.10548,-14.74534 42.88967,-17.4776 2.04498,-0.51811 4.5911,-1.24676 5.65805,-1.61923 4.50989,-1.57436 9.23596,-2.36222 9.69683,-1.61651 0.4006,0.64817 -0.47641,2.65415 -2.01768,4.61503 -2.00878,2.55568 -3.40739,4.89926 -5.84174,9.78868 -6.56255,13.18103 -8.03408,19.15964 -7.7162,31.35002 0.18415,7.06206 0.61654,9.64536 2.46624,14.73458 3.2221,8.86516 10.04593,15.59979 18.83555,18.58934 3.90596,1.3285 7.35117,0.9679 11.73565,-1.22834 7.29806,-3.65569 12.5419,-10.25443 15.15225,-19.06727 1.5903,-5.36904 2.20326,-9.27081 3.11335,-19.81798 0.36825,-4.26778 1.16563,-12.12439 1.77195,-17.45912 0.60631,-5.33474 1.33566,-12.08854 1.62076,-15.00846 0.28511,-2.91991 0.63396,-5.51546 0.77523,-5.7679 0.33013,-0.58991 2.25672,1.54585 7.57319,8.39541 l 3.94157,5.07818 13.61331,0.0141 13.6133,0.0141 1.40202,-2.02073 c 2.06778,-2.98032 3.52927,-4.72025 4.13575,-4.92368 0.29551,-0.0991 0.79186,-0.7232 1.103,-1.38684 0.56647,-1.20823 4.28497,-5.57139 4.74822,-5.57139 0.35584,0 0.89887,4.26058 1.64832,12.93269 0.72668,8.40863 3.26475,32.33791 4.04656,38.15143 0.63992,4.75853 3.19853,12.65251 4.98883,15.39186 5.38886,8.24553 11.97614,12.73673 18.68106,12.73673 5.21777,0 11.01649,-2.61526 15.6853,-7.07416 3.01092,-2.87555 4.90242,-5.41675 6.67341,-8.96562 3.19547,-6.4034 3.90788,-9.60908 3.90788,-17.58432 0,-12.70697 -1.38448,-18.57673 -6.97797,-29.58441 -4.62264,-9.09707 -6.7523,-12.77335 -8.08767,-13.96111 -1.59013,-1.41437 -1.40817,-2.23654 0.46824,-2.11573 2.38002,0.15322 19.75833,5.33897 27.4779,8.1995 25.80809,9.56333 47.77129,23.44654 62.28877,39.37349 5.40055,5.92485 7.28607,8.31457 9.58795,12.15167 2.95742,4.92994 7.28121,13.82037 8.31965,17.1067 1.71801,5.43696 1.81675,6.50147 1.81675,19.5898 0,13.54497 0.008,13.48456 -2.63727,20.20733 -1.68132,4.27315 -6.3326,13.59682 -7.93515,15.90633 -7.99475,11.52163 -20.75067,23.57947 -34.04537,32.1823 -6.69225,4.33046 -23.48748,13.24077 -23.99715,12.7311 -0.13682,-0.13683 0.23092,-1.07388 0.81722,-2.08234 2.05978,-3.54292 5.85844,-11.56515 6.91552,-14.6046 1.04636,-3.00858 1.06742,-3.17749 1.02825,-8.24458 -0.0587,-7.58983 -0.69017,-9.60908 -4.07774,-13.03919 -2.99475,-3.03236 -8.1901,-4.90492 -13.60847,-4.90492 -8.95289,0 -19.18669,4.77388 -27.01464,12.60184 -3.44513,3.44512 -9.20468,10.85484 -12.50654,16.08973 -0.70002,1.10985 -1.35325,2.01918 -1.45162,2.02074 -0.0984,0.002 -0.4987,-0.99027 -0.88963,-2.20406 -0.9681,-3.00586 -3.37876,-7.88127 -5.06609,-10.24585 -2.0548,-2.87955 -5.60505,-6.08299 -8.01757,-7.23439 -1.14075,-0.54442 -3.07896,-1.1603 -4.30712,-1.3686 -4.09432,-0.69444 -8.69305,0.98404 -14.32655,5.22902 -7.15208,5.38924 -13.37697,14.28917 -17.85388,25.52623 -2.7175,6.82096 -4.39442,11.90788 -5.00858,15.19344 -0.68893,3.68561 -1.1563,4.50223 -1.9906,3.47813 z"
       style="fill:none;stroke:#000000;stroke-width:0.32331723;stroke-opacity:1" />
    <path
       inkscape:connector-curvature="0"
       id="path23"
       d="m 544.16337,588.03997 c -0.18108,-0.22227 -1.16061,-3.02301 -2.17673,-6.22383 -5.80109,-18.27378 -10.43883,-26.98284 -18.71157,-35.13785 -3.16861,-3.12352 -6.01048,-5.21981 -9.25345,-6.82575 -2.70215,-1.33812 -2.80507,-1.36092 -6.14303,-1.36092 -3.2555,0 -3.49477,0.0488 -5.83002,1.19067 -4.93529,2.41308 -9.12359,7.45939 -12.06498,14.53659 -1.67646,4.03368 -2.57374,5.47909 -3.08217,4.96504 -0.17587,-0.17782 -0.97918,-1.63275 -1.78513,-3.23317 -1.69118,-3.35833 -5.07759,-7.55089 -10.58325,-13.10269 -6.95376,-7.01206 -13.23194,-10.98347 -20.51637,-12.97811 -3.3909,-0.92851 -9.9411,-1.00379 -13.03674,-0.14984 -2.85071,0.78639 -6.26004,2.56085 -7.99775,4.16262 -3.01986,2.78361 -4.09792,5.84004 -4.07751,11.56021 0.0258,7.22641 2.35807,14.51206 7.22033,22.55499 2.81602,4.65815 3.23486,5.5736 2.55008,5.5736 -0.71543,0 -16.53758,-8.18152 -20.75439,-10.73194 -5.53022,-3.34481 -9.09572,-5.85213 -15.10503,-10.62211 -8.69638,-6.90287 -15.7027,-13.16007 -16.99823,-15.18079 -0.39903,-0.62238 -1.96998,-2.54301 -3.49099,-4.26807 -5.13726,-5.82642 -8.23618,-10.51698 -11.01644,-16.67464 -4.20847,-9.32082 -5.16551,-14.20191 -5.18085,-26.42326 -0.0149,-11.87119 0.89465,-16.23641 5.37315,-25.78731 4.23653,-9.0349 6.64896,-12.91118 11.34725,-18.23274 11.15382,-12.63346 23.77594,-22.73704 38.49155,-30.81118 11.77473,-6.46054 32.10548,-14.74534 42.88967,-17.4776 2.04498,-0.51811 4.5911,-1.24676 5.65805,-1.61923 4.50989,-1.57436 9.23596,-2.36222 9.69683,-1.61651 0.4006,0.64817 -0.47641,2.65415 -2.01768,4.61503 -2.00878,2.55568 -3.40739,4.89926 -5.84174,9.78868 -6.56255,13.18103 -8.03408,19.15964 -7.7162,31.35002 0.18415,7.06206 0.61654,9.64536 2.46624,14.73458 3.2221,8.86516 10.04593,15.59979 18.83555,18.58934 3.90596,1.3285 7.35117,0.9679 11.73565,-1.22834 7.29806,-3.65569 12.5419,-10.25443 15.15225,-19.06727 1.5903,-5.36904 2.20326,-9.27081 3.11335,-19.81798 0.36825,-4.26778 1.16563,-12.12439 1.77195,-17.45912 0.60631,-5.33474 1.33566,-12.08854 1.62076,-15.00846 0.28511,-2.91991 0.63396,-5.51546 0.77523,-5.7679 0.33013,-0.58991 2.25672,1.54585 7.57319,8.39541 l 3.94157,5.07818 13.61331,0.0141 13.6133,0.0141 1.40202,-2.02073 c 2.06778,-2.98032 3.52927,-4.72025 4.13575,-4.92368 0.29551,-0.0991 0.79186,-0.7232 1.103,-1.38684 0.56647,-1.20823 4.28497,-5.57139 4.74822,-5.57139 0.35584,0 0.89887,4.26058 1.64832,12.93269 0.72668,8.40863 3.26475,32.33791 4.04656,38.15143 0.63992,4.75853 3.19853,12.65251 4.98883,15.39186 5.38886,8.24553 11.97614,12.73673 18.68106,12.73673 5.21777,0 11.01649,-2.61526 15.6853,-7.07416 3.01092,-2.87555 4.90242,-5.41675 6.67341,-8.96562 3.19547,-6.4034 3.90788,-9.60908 3.90788,-17.58432 0,-12.70697 -1.38448,-18.57673 -6.97797,-29.58441 -4.62264,-9.09707 -6.7523,-12.77335 -8.08767,-13.96111 -1.59013,-1.41437 -1.40817,-2.23654 0.46824,-2.11573 2.38002,0.15322 19.75833,5.33897 27.4779,8.1995 25.80809,9.56333 47.77129,23.44654 62.28877,39.37349 5.40055,5.92485 7.28607,8.31457 9.58795,12.15167 2.95742,4.92994 7.28121,13.82037 8.31965,17.1067 1.71801,5.43696 1.81675,6.50147 1.81675,19.5898 0,13.54497 0.008,13.48456 -2.63727,20.20733 -1.68132,4.27315 -6.3326,13.59682 -7.93515,15.90633 -7.99475,11.52163 -20.75067,23.57947 -34.04537,32.1823 -6.69225,4.33046 -23.48748,13.24077 -23.99715,12.7311 -0.13682,-0.13683 0.23092,-1.07388 0.81722,-2.08234 2.05978,-3.54292 5.85844,-11.56515 6.91552,-14.6046 1.04636,-3.00858 1.06742,-3.17749 1.02825,-8.24458 -0.0587,-7.58983 -0.69017,-9.60908 -4.07774,-13.03919 -2.99475,-3.03236 -8.1901,-4.90492 -13.60847,-4.90492 -8.95289,0 -19.18669,4.77388 -27.01464,12.60184 -3.44513,3.44512 -9.20468,10.85484 -12.50654,16.08973 -0.70002,1.10985 -1.35325,2.01918 -1.45162,2.02074 -0.0984,0.002 -0.4987,-0.99027 -0.88963,-2.20406 -0.9681,-3.00586 -3.37876,-7.88127 -5.06609,-10.24585 -2.0548,-2.87955 -5.60505,-6.08299 -8.01757,-7.23439 -1.14075,-0.54442 -3.07896,-1.1603 -4.30712,-1.3686 -4.09432,-0.69444 -8.69305,0.98404 -14.32655,5.22902 -7.15208,5.38924 -13.37697,14.28917 -17.85388,25.52623 -2.7175,6.82096 -4.39442,11.90788 -5.00858,15.19344 -0.68893,3.68561 -1.1563,4.50223 -1.9906,3.47813 z"
       style="fill:none;stroke:#000000;stroke-width:0.32331723;stroke-opacity:1" />
    <path
       style="fill:none;stroke:#000000;stroke-width:0.32331723;stroke-opacity:1"
       d="m 720.83759,166.99697 c 0.22227,-0.18108 3.02301,-1.16061 6.22383,-2.17673 18.27378,-5.80109 26.98284,-10.43883 35.13785,-18.71157 3.12352,-3.16861 5.21981,-6.01048 6.82575,-9.25345 1.33812,-2.70215 1.36092,-2.80507 1.36092,-6.14303 0,-3.2555 -0.0488,-3.49477 -1.19067,-5.83002 -2.41308,-4.93529 -7.45939,-9.12359 -14.53659,-12.06498 -4.03368,-1.67646 -5.47909,-2.57374 -4.96504,-3.08217 0.17782,-0.17587 1.63275,-0.97918 3.23317,-1.78513 3.35833,-1.69118 7.55089,-5.07759 13.10269,-10.583249 7.01206,-6.95376 10.98347,-13.23194 12.97811,-20.51637 0.92851,-3.3909 1.00379,-9.9411 0.14984,-13.03674 -0.78639,-2.85071 -2.56085,-6.26004 -4.16262,-7.99775 -2.78361,-3.01986 -5.84004,-4.09792 -11.56021,-4.07751 -7.22641,0.0258 -14.51206,2.35807 -22.55499,7.22033 -4.65815,2.81602 -5.5736,3.23486 -5.5736,2.55008 0,-0.71543 8.18152,-16.53758 10.73194,-20.75439 3.34481,-5.53022 5.85213,-9.09572 10.62211,-15.10503 6.90287,-8.69638 13.16007,-15.7026996 15.18079,-16.9982296 0.62238,-0.39903 2.54301,-1.96998 4.26807,-3.49099 5.82642,-5.13725998 10.51698,-8.23618 16.67464,-11.01644 9.32082,-4.2084704 14.20191,-5.1655104 26.42326,-5.1808504 11.87119,-0.0149 16.23641,0.89465 25.78731,5.3731504 9.0349,4.23653 12.91118,6.64896002 18.23274,11.34725 12.63346,11.1538196 22.73704,23.7759396 30.81118,38.4915496 6.46054,11.77473 14.74534,32.10548 17.4776,42.88967 0.51811,2.04498 1.24676,4.5911 1.61923,5.65805 1.57436,4.50989 2.36222,9.235959 1.61651,9.696829 -0.64817,0.4006 -2.65415,-0.47641 -4.61503,-2.01768 -2.55568,-2.008779 -4.89926,-3.407389 -9.78868,-5.841739 -13.18103,-6.56255 -19.15964,-8.03408 -31.35002,-7.7162 -7.06206,0.18415 -9.64536,0.61654 -14.73458,2.46624 -8.86516,3.2221 -15.59979,10.04593 -18.58934,18.835549 -1.3285,3.90596 -0.9679,7.35117 1.22834,11.73565 3.65569,7.29806 10.25443,12.5419 19.06727,15.15225 5.36904,1.5903 9.27081,2.20326 19.81798,3.11335 4.26778,0.36825 12.12439,1.16563 17.45912,1.77195 5.33474,0.60631 12.08854,1.33566 15.00846,1.62076 2.91991,0.28511 5.51546,0.63396 5.7679,0.77523 0.58991,0.33013 -1.54585,2.25672 -8.39541,7.57319 l -5.07818,3.94157 -0.0141,13.61331 -0.0141,13.6133 2.02073,1.40202 c 2.98032,2.06778 4.72025,3.52927 4.92368,4.13575 0.0991,0.29551 0.7232,0.79186 1.38684,1.103 1.20823,0.56647 5.57139,4.28497 5.57139,4.74822 0,0.35584 -4.26058,0.89887 -12.93269,1.64832 -8.40863,0.72668 -32.33791,3.26475 -38.15143,4.04656 -4.75853,0.63992 -12.65251,3.19853 -15.39186,4.98883 -8.24553,5.38886 -12.73673,11.97614 -12.73673,18.68106 0,5.21777 2.61526,11.01649 7.07416,15.6853 2.87555,3.01092 5.41675,4.90242 8.96562,6.67341 6.4034,3.19547 9.60908,3.90788 17.58432,3.90788 12.70697,0 18.57673,-1.38448 29.58441,-6.97797 9.09707,-4.62264 12.77335,-6.7523 13.96111,-8.08767 1.41437,-1.59013 2.23654,-1.40817 2.11573,0.46824 -0.15322,2.38002 -5.33897,19.75833 -8.1995,27.4779 -9.56333,25.80812 -23.44654,47.77132 -39.37349,62.28872 -5.92485,5.4006 -8.31457,7.2861 -12.15167,9.588 -4.92994,2.9574 -13.82037,7.2812 -17.1067,8.3196 -5.43696,1.7181 -6.50147,1.8168 -19.5898,1.8168 -13.54497,0 -13.48456,0.01 -20.20733,-2.6373 -4.27315,-1.6813 -13.59682,-6.3326 -15.90633,-7.9351 -11.52163,-7.9948 -23.57947,-20.7507 -32.1823,-34.0454 -4.33046,-6.6922 -13.24077,-23.4875 -12.7311,-23.9971 0.13683,-0.1369 1.07388,0.2309 2.08234,0.8172 3.54292,2.0598 11.56515,5.8584 14.6046,6.9155 3.00858,1.0464 3.17749,1.0674 8.24458,1.0282 7.58983,-0.059 9.60908,-0.6901 13.03919,-4.0777 3.03236,-2.9947 4.90492,-8.1901 4.90492,-13.60846 0,-8.95289 -4.77388,-19.18669 -12.60184,-27.01464 -3.44512,-3.44513 -10.85484,-9.20468 -16.08973,-12.50654 -1.10985,-0.70002 -2.01918,-1.35325 -2.02074,-1.45162 -0.002,-0.0984 0.99027,-0.4987 2.20406,-0.88963 3.00586,-0.9681 7.88127,-3.37876 10.24585,-5.06609 2.87955,-2.0548 6.08299,-5.60505 7.23439,-8.01757 0.54442,-1.14075 1.1603,-3.07896 1.3686,-4.30712 0.69444,-4.09432 -0.98404,-8.69305 -5.22902,-14.32655 -5.38924,-7.15208 -14.28917,-13.37697 -25.52623,-17.85388 -6.82096,-2.7175 -11.90788,-4.39442 -15.19344,-5.00858 -3.68561,-0.68893 -4.50223,-1.1563 -3.47813,-1.9906 z"
       id="path30"
       inkscape:connector-curvature="0" />
  </g>
</svg>
