<?xml version="1.0" encoding="UTF-8" standalone="no"?>
<!-- Created with Inkscape (http://www.inkscape.org/) -->

<svg
   xmlns:dc="http://purl.org/dc/elements/1.1/"
   xmlns:cc="http://creativecommons.org/ns#"
   xmlns:rdf="http://www.w3.org/1999/02/22-rdf-syntax-ns#"
   xmlns:svg="http://www.w3.org/2000/svg"
   xmlns="http://www.w3.org/2000/svg"
   xmlns:sodipodi="http://sodipodi.sourceforge.net/DTD/sodipodi-0.dtd"
   xmlns:inkscape="http://www.inkscape.org/namespaces/inkscape"
   width="600mm"
   height="300mm"
   viewBox="0 0 2125.9842 1062.9921"
   id="svg2"
   version="1.1"
   inkscape:version="0.92.2 5c3e80d, 2017-08-06"
   sodipodi:docname="batman-gross.svg">
  <defs
     id="defs4" />
  <sodipodi:namedview
     id="base"
     pagecolor="#ffffff"
     bordercolor="#666666"
     borderopacity="1.0"
     inkscape:pageopacity="0.0"
     inkscape:pageshadow="2"
     inkscape:zoom="0.18449109"
     inkscape:cx="459.91571"
     inkscape:cy="306.85619"
     inkscape:document-units="mm"
     inkscape:current-layer="layer1"
     showgrid="false"
     units="mm"
     width="600in"
     inkscape:window-width="1280"
     inkscape:window-height="719"
     inkscape:window-x="0"
     inkscape:window-y="1"
     inkscape:window-maximized="1"
     inkscape:snap-global="false"
     objecttolerance="10000"
     guidetolerance="10000"
     inkscape:snap-perpendicular="true"
     inkscape:snap-tangential="true" />
  <metadata
     id="metadata7">
    <rdf:RDF>
      <cc:Work
         rdf:about="">
        <dc:format>image/svg+xml</dc:format>
        <dc:type
           rdf:resource="http://purl.org/dc/dcmitype/StillImage" />
        <dc:title></dc:title>
      </cc:Work>
    </rdf:RDF>
  </metadata>
  <g
     inkscape:label="Ebene 1"
     inkscape:groupmode="layer"
     id="layer1"
     transform="translate(0,10.627025)">
    <g
       id="g927"
       transform="translate(-5.9988776,-320.13739)"
       style="opacity:0.93999999">
      <path
         inkscape:connector-curvature="0"
         id="path61"
         d="m 353.79856,698.66679 c -0.35343,-0.43382 -2.26526,-5.90025 -4.24851,-12.14755 -11.32246,-35.66643 -20.3743,-52.66459 -36.52089,-68.5814 -6.18442,-6.09642 -11.73114,-10.18791 -18.0607,-13.32236 -5.27401,-2.61172 -5.47489,-2.65622 -11.98985,-2.65622 -6.35402,0 -6.82102,0.0953 -11.37892,2.32393 -9.6326,4.70981 -17.80725,14.5591 -23.5482,28.37223 -3.27208,7.87287 -5.02337,10.69399 -6.01571,9.69068 -0.34327,-0.34707 -1.91116,-3.18678 -3.48419,-6.31044 -3.30082,-6.55472 -9.91035,-14.73769 -20.65618,-25.57359 -13.57223,-13.686 -25.82586,-21.43732 -40.04346,-25.33042 -6.61829,-1.81224 -19.40285,-1.95918 -25.44487,-0.29245 -5.56397,1.53486 -12.21822,4.99822 -15.60986,8.12452 -5.8941,5.43299 -7.99824,11.39848 -7.95841,22.56299 0.0503,14.10437 4.60245,28.32437 14.0925,44.02241 5.49626,9.09168 6.31376,10.87845 4.9772,10.87845 -1.39635,0 -32.27773,-15.96855 -40.50801,-20.94641 -10.793778,-6.52833 -17.752858,-11.42207 -29.481723,-20.73202 -16.97342,-13.4729 -30.64822,-25.68559 -33.176822,-29.62958 -0.77882,-1.21476 -3.844962,-4.96341 -6.81365,-8.33035 C 27.901496,579.41732 21.853089,570.26238 16.426633,558.24397 8.2126299,540.05178 6.3446919,530.52495 6.3147449,506.67156 c -0.02908,-23.16996 1.746172,-31.68992 10.4872101,-50.33119 8.268794,-17.63414 12.977313,-25.19979 22.147349,-35.5863 21.769823,-24.65776 46.405428,-44.37773 75.127086,-60.13668 22.98168,-12.60955 62.66287,-28.77968 83.71124,-34.11244 3.99135,-1.01124 8.96082,-2.43341 11.04327,-3.16038 8.80232,-3.07282 18.02657,-4.61055 18.9261,-3.15509 0.78187,1.2651 -0.92985,5.18033 -3.93807,9.00754 -3.9207,4.98812 -6.65049,9.56227 -11.4018,19.10536 -12.80867,25.72647 -15.68077,37.39542 -15.06034,61.18836 0.35943,13.78359 1.20336,18.82564 4.81357,28.75868 6.28882,17.30285 19.60745,30.44738 36.76287,36.28231 7.62356,2.59295 14.34786,1.88914 22.9054,-2.39744 14.24422,-7.1351 24.47906,-20.0144 29.57388,-37.21513 3.10392,-10.47919 4.30028,-18.09459 6.07657,-38.68036 0.71876,-8.32978 2.27506,-23.66416 3.45847,-34.07639 1.18339,-10.41223 2.60691,-23.59417 3.16337,-29.29321 0.55646,-5.69903 1.23734,-10.76498 1.51307,-11.25769 0.64435,-1.15137 4.40463,3.01717 14.78122,16.38601 l 7.69308,9.91149 26.5702,0.0275 26.57018,0.0275 2.73643,-3.94402 c 4.03586,-5.81694 6.88836,-9.21289 8.07207,-9.60994 0.57677,-0.19347 1.54554,-1.41153 2.15282,-2.70682 1.10562,-2.3582 8.36332,-10.87413 9.26749,-10.87413 0.69452,0 1.75439,8.31572 3.21715,25.24178 1.41833,16.4118 6.37209,63.11652 7.898,74.46323 1.24899,9.28762 6.24284,24.69493 9.73711,30.04155 10.51787,16.09346 23.3748,24.8593 36.46133,24.8593 10.18394,0 21.50179,-5.10441 30.61428,-13.80721 5.87665,-5.61244 9.56844,-10.5723 13.02502,-17.49892 6.23686,-12.49803 7.62734,-18.75482 7.62734,-34.32075 0,-24.80121 -2.7022,-36.2577 -13.61948,-57.74228 -9.02237,-17.75549 -13.17901,-24.93078 -15.78536,-27.24904 -3.10358,-2.76053 -2.74843,-4.36523 0.9139,-4.12944 4.64529,0.29906 38.56394,10.42051 53.63084,16.00364 50.37174,18.66553 93.2391,45.7625 121.57405,76.84842 10.54069,11.56401 14.2208,16.22823 18.71357,23.71741 5.77223,9.62215 14.21132,26.97433 16.23813,33.38853 3.35319,10.61175 3.5459,12.68943 3.5459,38.235 0,26.43681 0.0155,26.3189 -5.14737,39.44027 -3.28156,8.34025 -12.35985,26.53801 -15.48768,31.04567 -15.60399,22.4877 -40.50075,46.02197 -66.4491,62.81281 -13.0618,8.4521 -45.84241,25.84307 -46.83717,24.84832 -0.26705,-0.26707 0.4507,-2.09599 1.59502,-4.06427 4.02024,-6.91501 11.43439,-22.57264 13.49759,-28.50498 2.04226,-5.8721 2.08336,-6.20177 2.00691,-16.09162 -0.11454,-14.81369 -1.34705,-18.75482 -7.95885,-25.44964 -5.8451,-5.9185 -15.98528,-9.57333 -26.56075,-9.57333 -17.47408,0 -37.44821,9.31757 -52.72666,24.59602 -6.72414,6.72413 -17.96553,21.18627 -24.41003,31.40364 -1.36629,2.16618 -2.64125,3.941 -2.83325,3.94404 -0.19199,0.003 -0.97334,-1.9328 -1.73635,-4.30185 -1.88952,-5.86677 -6.59461,-15.38251 -9.8879,-19.99766 -4.01053,-5.62024 -10.93983,-11.87265 -15.64854,-14.11993 -2.2265,-1.0626 -6.00945,-2.26465 -8.40656,-2.67122 -7.99121,-1.35539 -16.96692,1.92064 -27.96229,10.2059 -13.95929,10.51863 -26.10892,27.88933 -34.84685,49.82161 -5.30398,13.31303 -8.57696,23.24159 -9.77566,29.65427 -1.34465,7.1935 -2.25684,8.78737 -3.88521,6.78856 z"
         style="fill:none;stroke:#000000;stroke-width:0.63104439;stroke-opacity:1" />
      <path
         style="fill:none;stroke:#000000;stroke-width:0.63104439;stroke-opacity:1"
         d="m 653.60978,1041.6711 c -0.35343,-0.4338 -2.26526,-5.9002 -4.24851,-12.1475 -11.32246,-35.66643 -20.3743,-52.66459 -36.52089,-68.5814 -6.18442,-6.09642 -11.73114,-10.18791 -18.0607,-13.32236 -5.27401,-2.61172 -5.47489,-2.65622 -11.98985,-2.65622 -6.35402,0 -6.82102,0.0953 -11.37892,2.32393 -9.6326,4.70981 -17.80725,14.5591 -23.5482,28.37223 -3.27208,7.87287 -5.02337,10.69399 -6.01571,9.69068 -0.34327,-0.34707 -1.91116,-3.18678 -3.48419,-6.31044 -3.30082,-6.55472 -9.91035,-14.73769 -20.65618,-25.57359 -13.57223,-13.686 -25.82586,-21.43732 -40.04346,-25.33042 -6.61829,-1.81224 -19.40285,-1.95918 -25.44487,-0.29245 -5.56397,1.53486 -12.21822,4.99822 -15.60986,8.12452 -5.8941,5.43299 -7.99824,11.39848 -7.95841,22.56299 0.0503,14.10437 4.60245,28.32437 14.0925,44.02243 5.49626,9.0917 6.31376,10.8784 4.9772,10.8784 -1.39635,0 -32.27773,-15.96852 -40.50801,-20.94638 -10.79378,-6.52833 -17.75286,-11.42207 -29.48173,-20.73202 -16.97342,-13.4729 -30.64822,-25.68559 -33.17682,-29.62958 -0.77882,-1.21476 -3.84496,-4.96341 -6.81365,-8.33035 -10.02681,-11.37189 -16.07522,-20.52683 -21.50167,-32.54524 -8.214,-18.19219 -10.08194,-27.71902 -10.11189,-51.57241 -0.0291,-23.16996 1.74617,-31.68992 10.48721,-50.33119 8.26879,-17.63414 12.97731,-25.19979 22.14735,-35.5863 21.76982,-24.65776 46.40543,-44.37773 75.12709,-60.13668 22.98168,-12.60955 62.66287,-28.77968 83.71124,-34.11244 3.99135,-1.01124 8.96082,-2.43341 11.04327,-3.16038 8.80232,-3.07282 18.02657,-4.61055 18.9261,-3.15509 0.78187,1.2651 -0.92985,5.18033 -3.93807,9.00754 -3.9207,4.98812 -6.65049,9.56227 -11.4018,19.10536 -12.80867,25.72647 -15.68077,37.39542 -15.06034,61.18836 0.35943,13.78359 1.20336,18.82564 4.81357,28.75868 6.28882,17.30285 19.60745,30.44738 36.76287,36.28231 7.62356,2.59295 14.34786,1.88914 22.9054,-2.39744 14.24422,-7.1351 24.47906,-20.0144 29.57388,-37.21513 3.10392,-10.47919 4.30028,-18.09459 6.07657,-38.68036 0.71876,-8.32978 2.27506,-23.66416 3.45847,-34.07639 1.18339,-10.41223 2.60691,-23.59417 3.16337,-29.29321 0.55646,-5.69903 1.23734,-10.76498 1.51307,-11.25769 0.64435,-1.15137 4.40463,3.01717 14.78122,16.38601 l 7.69308,9.91149 26.5702,0.0275 26.57018,0.0275 2.73643,-3.94402 c 4.03586,-5.81694 6.88836,-9.21289 8.07207,-9.60994 0.57677,-0.19347 1.54554,-1.41153 2.15282,-2.70682 1.10562,-2.3582 8.36332,-10.87413 9.26749,-10.87413 0.69452,0 1.75439,8.31572 3.21715,25.24178 1.41833,16.4118 6.37209,63.11652 7.898,74.46323 1.24899,9.28762 6.24284,24.69493 9.73711,30.04155 10.51787,16.09346 23.3748,24.8593 36.46133,24.8593 10.18394,0 21.50179,-5.10441 30.61428,-13.80721 5.87665,-5.61244 9.56844,-10.5723 13.02502,-17.49892 6.23686,-12.49803 7.62734,-18.75482 7.62734,-34.32075 0,-24.80121 -2.7022,-36.2577 -13.61948,-57.74228 -9.02237,-17.75549 -13.17901,-24.93078 -15.78536,-27.24904 -3.10358,-2.76053 -2.74843,-4.36523 0.9139,-4.12944 4.64529,0.29906 38.56394,10.42051 53.63084,16.00364 50.37174,18.66553 93.2391,45.7625 121.57405,76.84842 10.54069,11.56401 14.2208,16.22823 18.71357,23.71741 5.77223,9.62215 14.21132,26.97433 16.23813,33.38853 3.35319,10.61175 3.5459,12.68943 3.5459,38.235 0,26.43681 0.0155,26.3189 -5.14737,39.44027 -3.28156,8.34025 -12.35985,26.53801 -15.48768,31.04567 -15.60399,22.4877 -40.50075,46.02197 -66.4491,62.81281 -13.0618,8.4521 -45.84241,25.84307 -46.83717,24.84827 -0.26705,-0.267 0.4507,-2.0959 1.59502,-4.0642 4.02024,-6.91503 11.43439,-22.57266 13.49759,-28.505 2.04226,-5.8721 2.08336,-6.20177 2.00691,-16.09162 -0.11454,-14.81369 -1.34705,-18.75482 -7.95885,-25.44964 -5.8451,-5.9185 -15.98528,-9.57333 -26.56075,-9.57333 -17.47408,0 -37.44821,9.31757 -52.72666,24.59602 -6.72414,6.72413 -17.96553,21.18627 -24.41003,31.40364 -1.36629,2.16618 -2.64125,3.941 -2.83325,3.94404 -0.19199,0.003 -0.97334,-1.9328 -1.73635,-4.30185 -1.88952,-5.86677 -6.59461,-15.38251 -9.8879,-19.99766 -4.01053,-5.62024 -10.93983,-11.87265 -15.64854,-14.11993 -2.2265,-1.0626 -6.00945,-2.26465 -8.40656,-2.67122 -7.99121,-1.35539 -16.96692,1.92064 -27.96229,10.2059 -13.95929,10.51863 -26.10892,27.88933 -34.84685,49.82165 -5.30398,13.313 -8.57696,23.2415 -9.77566,29.6542 -1.34465,7.1935 -2.25684,8.7874 -3.88521,6.7886 z"
         id="path63"
         inkscape:connector-curvature="0" />
    </g>
    <g
       style="opacity:0.93999999"
       transform="translate(1064.9841,-329.94711)"
       id="g933">
      <path
         style="fill:none;stroke:#000000;stroke-width:0.63104439;stroke-opacity:1"
         d="m 353.79856,698.66679 c -0.35343,-0.43382 -2.26526,-5.90025 -4.24851,-12.14755 -11.32246,-35.66643 -20.3743,-52.66459 -36.52089,-68.5814 -6.18442,-6.09642 -11.73114,-10.18791 -18.0607,-13.32236 -5.27401,-2.61172 -5.47489,-2.65622 -11.98985,-2.65622 -6.35402,0 -6.82102,0.0953 -11.37892,2.32393 -9.6326,4.70981 -17.80725,14.5591 -23.5482,28.37223 -3.27208,7.87287 -5.02337,10.69399 -6.01571,9.69068 -0.34327,-0.34707 -1.91116,-3.18678 -3.48419,-6.31044 -3.30082,-6.55472 -9.91035,-14.73769 -20.65618,-25.57359 -13.57223,-13.686 -25.82586,-21.43732 -40.04346,-25.33042 -6.61829,-1.81224 -19.40285,-1.95918 -25.44487,-0.29245 -5.56397,1.53486 -12.21822,4.99822 -15.60986,8.12452 -5.8941,5.43299 -7.99824,11.39848 -7.95841,22.56299 0.0503,14.10437 4.60245,28.32437 14.0925,44.02241 5.49626,9.09168 6.31376,10.87845 4.9772,10.87845 -1.39635,0 -32.27773,-15.96855 -40.50801,-20.94641 -10.793778,-6.52833 -17.752858,-11.42207 -29.481723,-20.73202 -16.97342,-13.4729 -30.64822,-25.68559 -33.176822,-29.62958 -0.77882,-1.21476 -3.844962,-4.96341 -6.81365,-8.33035 C 27.901496,579.41732 21.853089,570.26238 16.426633,558.24397 8.2126299,540.05178 6.3446919,530.52495 6.3147449,506.67156 c -0.02908,-23.16996 1.746172,-31.68992 10.4872101,-50.33119 8.268794,-17.63414 12.977313,-25.19979 22.147349,-35.5863 21.769823,-24.65776 46.405428,-44.37773 75.127086,-60.13668 22.98168,-12.60955 62.66287,-28.77968 83.71124,-34.11244 3.99135,-1.01124 8.96082,-2.43341 11.04327,-3.16038 8.80232,-3.07282 18.02657,-4.61055 18.9261,-3.15509 0.78187,1.2651 -0.92985,5.18033 -3.93807,9.00754 -3.9207,4.98812 -6.65049,9.56227 -11.4018,19.10536 -12.80867,25.72647 -15.68077,37.39542 -15.06034,61.18836 0.35943,13.78359 1.20336,18.82564 4.81357,28.75868 6.28882,17.30285 19.60745,30.44738 36.76287,36.28231 7.62356,2.59295 14.34786,1.88914 22.9054,-2.39744 14.24422,-7.1351 24.47906,-20.0144 29.57388,-37.21513 3.10392,-10.47919 4.30028,-18.09459 6.07657,-38.68036 0.71876,-8.32978 2.27506,-23.66416 3.45847,-34.07639 1.18339,-10.41223 2.60691,-23.59417 3.16337,-29.29321 0.55646,-5.69903 1.23734,-10.76498 1.51307,-11.25769 0.64435,-1.15137 4.40463,3.01717 14.78122,16.38601 l 7.69308,9.91149 26.5702,0.0275 26.57018,0.0275 2.73643,-3.94402 c 4.03586,-5.81694 6.88836,-9.21289 8.07207,-9.60994 0.57677,-0.19347 1.54554,-1.41153 2.15282,-2.70682 1.10562,-2.3582 8.36332,-10.87413 9.26749,-10.87413 0.69452,0 1.75439,8.31572 3.21715,25.24178 1.41833,16.4118 6.37209,63.11652 7.898,74.46323 1.24899,9.28762 6.24284,24.69493 9.73711,30.04155 10.51787,16.09346 23.3748,24.8593 36.46133,24.8593 10.18394,0 21.50179,-5.10441 30.61428,-13.80721 5.87665,-5.61244 9.56844,-10.5723 13.02502,-17.49892 6.23686,-12.49803 7.62734,-18.75482 7.62734,-34.32075 0,-24.80121 -2.7022,-36.2577 -13.61948,-57.74228 -9.02237,-17.75549 -13.17901,-24.93078 -15.78536,-27.24904 -3.10358,-2.76053 -2.74843,-4.36523 0.9139,-4.12944 4.64529,0.29906 38.56394,10.42051 53.63084,16.00364 50.37174,18.66553 93.2391,45.7625 121.57405,76.84842 10.54069,11.56401 14.2208,16.22823 18.71357,23.71741 5.77223,9.62215 14.21132,26.97433 16.23813,33.38853 3.35319,10.61175 3.5459,12.68943 3.5459,38.235 0,26.43681 0.0155,26.3189 -5.14737,39.44027 -3.28156,8.34025 -12.35985,26.53801 -15.48768,31.04567 -15.60399,22.4877 -40.50075,46.02197 -66.4491,62.81281 -13.0618,8.4521 -45.84241,25.84307 -46.83717,24.84832 -0.26705,-0.26707 0.4507,-2.09599 1.59502,-4.06427 4.02024,-6.91501 11.43439,-22.57264 13.49759,-28.50498 2.04226,-5.8721 2.08336,-6.20177 2.00691,-16.09162 -0.11454,-14.81369 -1.34705,-18.75482 -7.95885,-25.44964 -5.8451,-5.9185 -15.98528,-9.57333 -26.56075,-9.57333 -17.47408,0 -37.44821,9.31757 -52.72666,24.59602 -6.72414,6.72413 -17.96553,21.18627 -24.41003,31.40364 -1.36629,2.16618 -2.64125,3.941 -2.83325,3.94404 -0.19199,0.003 -0.97334,-1.9328 -1.73635,-4.30185 -1.88952,-5.86677 -6.59461,-15.38251 -9.8879,-19.99766 -4.01053,-5.62024 -10.93983,-11.87265 -15.64854,-14.11993 -2.2265,-1.0626 -6.00945,-2.26465 -8.40656,-2.67122 -7.99121,-1.35539 -16.96692,1.92064 -27.96229,10.2059 -13.95929,10.51863 -26.10892,27.88933 -34.84685,49.82161 -5.30398,13.31303 -8.57696,23.24159 -9.77566,29.65427 -1.34465,7.1935 -2.25684,8.78737 -3.88521,6.78856 z"
         id="path929"
         inkscape:connector-curvature="0" />
      <path
         inkscape:connector-curvature="0"
         id="path931"
         d="m 653.60978,1041.6711 c -0.35343,-0.4338 -2.26526,-5.9002 -4.24851,-12.1475 -11.32246,-35.66643 -20.3743,-52.66459 -36.52089,-68.5814 -6.18442,-6.09642 -11.73114,-10.18791 -18.0607,-13.32236 -5.27401,-2.61172 -5.47489,-2.65622 -11.98985,-2.65622 -6.35402,0 -6.82102,0.0953 -11.37892,2.32393 -9.6326,4.70981 -17.80725,14.5591 -23.5482,28.37223 -3.27208,7.87287 -5.02337,10.69399 -6.01571,9.69068 -0.34327,-0.34707 -1.91116,-3.18678 -3.48419,-6.31044 -3.30082,-6.55472 -9.91035,-14.73769 -20.65618,-25.57359 -13.57223,-13.686 -25.82586,-21.43732 -40.04346,-25.33042 -6.61829,-1.81224 -19.40285,-1.95918 -25.44487,-0.29245 -5.56397,1.53486 -12.21822,4.99822 -15.60986,8.12452 -5.8941,5.43299 -7.99824,11.39848 -7.95841,22.56299 0.0503,14.10437 4.60245,28.32437 14.0925,44.02243 5.49626,9.0917 6.31376,10.8784 4.9772,10.8784 -1.39635,0 -32.27773,-15.96852 -40.50801,-20.94638 -10.79378,-6.52833 -17.75286,-11.42207 -29.48173,-20.73202 -16.97342,-13.4729 -30.64822,-25.68559 -33.17682,-29.62958 -0.77882,-1.21476 -3.84496,-4.96341 -6.81365,-8.33035 -10.02681,-11.37189 -16.07522,-20.52683 -21.50167,-32.54524 -8.214,-18.19219 -10.08194,-27.71902 -10.11189,-51.57241 -0.0291,-23.16996 1.74617,-31.68992 10.48721,-50.33119 8.26879,-17.63414 12.97731,-25.19979 22.14735,-35.5863 21.76982,-24.65776 46.40543,-44.37773 75.12709,-60.13668 22.98168,-12.60955 62.66287,-28.77968 83.71124,-34.11244 3.99135,-1.01124 8.96082,-2.43341 11.04327,-3.16038 8.80232,-3.07282 18.02657,-4.61055 18.9261,-3.15509 0.78187,1.2651 -0.92985,5.18033 -3.93807,9.00754 -3.9207,4.98812 -6.65049,9.56227 -11.4018,19.10536 -12.80867,25.72647 -15.68077,37.39542 -15.06034,61.18836 0.35943,13.78359 1.20336,18.82564 4.81357,28.75868 6.28882,17.30285 19.60745,30.44738 36.76287,36.28231 7.62356,2.59295 14.34786,1.88914 22.9054,-2.39744 14.24422,-7.1351 24.47906,-20.0144 29.57388,-37.21513 3.10392,-10.47919 4.30028,-18.09459 6.07657,-38.68036 0.71876,-8.32978 2.27506,-23.66416 3.45847,-34.07639 1.18339,-10.41223 2.60691,-23.59417 3.16337,-29.29321 0.55646,-5.69903 1.23734,-10.76498 1.51307,-11.25769 0.64435,-1.15137 4.40463,3.01717 14.78122,16.38601 l 7.69308,9.91149 26.5702,0.0275 26.57018,0.0275 2.73643,-3.94402 c 4.03586,-5.81694 6.88836,-9.21289 8.07207,-9.60994 0.57677,-0.19347 1.54554,-1.41153 2.15282,-2.70682 1.10562,-2.3582 8.36332,-10.87413 9.26749,-10.87413 0.69452,0 1.75439,8.31572 3.21715,25.24178 1.41833,16.4118 6.37209,63.11652 7.898,74.46323 1.24899,9.28762 6.24284,24.69493 9.73711,30.04155 10.51787,16.09346 23.3748,24.8593 36.46133,24.8593 10.18394,0 21.50179,-5.10441 30.61428,-13.80721 5.87665,-5.61244 9.56844,-10.5723 13.02502,-17.49892 6.23686,-12.49803 7.62734,-18.75482 7.62734,-34.32075 0,-24.80121 -2.7022,-36.2577 -13.61948,-57.74228 -9.02237,-17.75549 -13.17901,-24.93078 -15.78536,-27.24904 -3.10358,-2.76053 -2.74843,-4.36523 0.9139,-4.12944 4.64529,0.29906 38.56394,10.42051 53.63084,16.00364 50.37174,18.66553 93.2391,45.7625 121.57405,76.84842 10.54069,11.56401 14.2208,16.22823 18.71357,23.71741 5.77223,9.62215 14.21132,26.97433 16.23813,33.38853 3.35319,10.61175 3.5459,12.68943 3.5459,38.235 0,26.43681 0.0155,26.3189 -5.14737,39.44027 -3.28156,8.34025 -12.35985,26.53801 -15.48768,31.04567 -15.60399,22.4877 -40.50075,46.02197 -66.4491,62.81281 -13.0618,8.4521 -45.84241,25.84307 -46.83717,24.84827 -0.26705,-0.267 0.4507,-2.0959 1.59502,-4.0642 4.02024,-6.91503 11.43439,-22.57266 13.49759,-28.505 2.04226,-5.8721 2.08336,-6.20177 2.00691,-16.09162 -0.11454,-14.81369 -1.34705,-18.75482 -7.95885,-25.44964 -5.8451,-5.9185 -15.98528,-9.57333 -26.56075,-9.57333 -17.47408,0 -37.44821,9.31757 -52.72666,24.59602 -6.72414,6.72413 -17.96553,21.18627 -24.41003,31.40364 -1.36629,2.16618 -2.64125,3.941 -2.83325,3.94404 -0.19199,0.003 -0.97334,-1.9328 -1.73635,-4.30185 -1.88952,-5.86677 -6.59461,-15.38251 -9.8879,-19.99766 -4.01053,-5.62024 -10.93983,-11.87265 -15.64854,-14.11993 -2.2265,-1.0626 -6.00945,-2.26465 -8.40656,-2.67122 -7.99121,-1.35539 -16.96692,1.92064 -27.96229,10.2059 -13.95929,10.51863 -26.10892,27.88933 -34.84685,49.82165 -5.30398,13.313 -8.57696,23.2415 -9.77566,29.6542 -1.34465,7.1935 -2.25684,8.7874 -3.88521,6.7886 z"
         style="fill:none;stroke:#000000;stroke-width:0.63104439;stroke-opacity:1" />
    </g>
  </g>
</svg>
