0
SECTION
2
HEADER
9
$INSUNITS
70
4
9
$ACADVER
1
AC1014
9
$HANDSEED
5
FFFF
0
ENDSEC
0
SECTION
2
TABLES
0
TABLE
2
VPORT
5
8
100
AcDbSymbolTable
0
ENDTAB
0
TABLE
2
LTYPE
5
5
100
AcDbSymbolTable
0
LTYPE
5
14
100
AcDbSymbolTableRecord
100
AcDbLinetypeTableRecord
2
BYBLOCK
70
0
0
LTYPE
5
15
100
AcDbSymbolTableRecord
100
AcDbLinetypeTableRecord
2
BYLAYER
70
0
0
ENDTAB
0
TABLE
2
LAYER
5
2
100
AcDbSymbolTable
70
2
0
LAYER
5
50
100
AcDbSymbolTableRecord
100
AcDbLayerTableRecord
2
0
70
0
6
CONTINUOUS
0
ENDTAB
0
TABLE
2
STYLE
5
3
100
AcDbSymbolTable
70
1
0
STYLE
5
11
100
AcDbSymbolTableRecord
100
AcDbTextStyleTableRecord
2
STANDARD
70
0
0
ENDTAB
0
TABLE
2
VIEW
5
6
100
AcDbSymbolTable
70
0
0
ENDTAB
0
TABLE
2
UCS
5
7
100
AcDbSymbolTable
70
0
0
ENDTAB
0
TABLE
2
APPID
5
9
100
AcDbSymbolTable
70
2
0
APPID
5
12
100
AcDbSymbolTableRecord
100
AcDbRegAppTableRecord
2
ACAD
70
0
0
ENDTAB
0
TABLE
2
DIMSTYLE
5
A
100
AcDbSymbolTable
70
1
0
ENDTAB
0
TABLE
2
BLOCK_RECORD
5
1
100
AcDbSymbolTable
70
1
0
BLOCK_RECORD
5
1F
100
AcDbSymbolTableRecord
100
AcDbBlockTableRecord
2
*MODEL_SPACE
0
BLOCK_RECORD
5
1B
100
AcDbSymbolTableRecord
100
AcDbBlockTableRecord
2
*PAPER_SPACE
0
ENDTAB
0
ENDSEC
0
SECTION
2
BLOCKS
0
BLOCK
5
20
100
AcDbEntity
100
AcDbBlockBegin
2
*MODEL_SPACE
0
ENDBLK
5
21
100
AcDbEntity
100
AcDbBlockEnd
0
BLOCK
5
1C
100
AcDbEntity
100
AcDbBlockBegin
2
*PAPER_SPACE
0
ENDBLK
5
1D
100
AcDbEntity
100
AcDbBlockEnd
0
ENDSEC
0
SECTION
2
ENTITIES
0
CIRCLE
5
100
100
AcDbEntity
8
0
100
AcDbCircle
10
0
20
0
30
0
40
10
0
LINE
5
101
100
AcDbEntity
8
0
100
AcDbLine
10
0
20
-50.000000000000597
30
0
11
0
21
0
31
0
0
LINE
5
102
100
AcDbEntity
8
0
100
AcDbLine
10
0
20
0
30
0
11
0
21
-49.999999999999993
31
0
0
LINE
5
103
100
AcDbEntity
8
0
100
AcDbLine
10
1.8999999999999999
20
-35.463886958482306
30
0
11
-2
21
-35.463886958482306
31
0
0
LINE
5
104
100
AcDbEntity
8
0
100
AcDbLine
10
-2
20
-35.463886958482306
30
0
11
-2.0000000000000053
21
-49.959983987187186
31
0
0
LINE
5
105
100
AcDbEntity
8
0
100
AcDbLine
10
1.8999999999999999
20
-49.963886958482313
30
0
11
1.8999999999999999
21
-35.463886958482306
31
0
0
LINE
5
106
100
AcDbEntity
8
0
100
AcDbLine
10
1.8999999999999999
20
-35.463886958482306
30
0
11
0
21
-50.000000000000597
31
0
0
LINE
5
107
100
AcDbEntity
8
0
100
AcDbLine
10
-2
20
-35.463886958482306
30
0
11
5.7870474259273053
21
-92.060587779951618
31
0
0
LINE
5
108
100
AcDbEntity
8
0
100
AcDbLine
10
26.420257839830448
20
-23.733252071321573
30
0
11
23.662541393202908
21
-26.490968517949099
31
0
0
LINE
5
109
100
AcDbEntity
8
0
100
AcDbLine
10
36.673306167035385
20
-33.986300398526517
30
0
11
26.420257839830448
21
-23.733252071321573
31
0
0
LINE
5
110
100
AcDbEntity
8
0
100
AcDbLine
10
23.662541393202908
20
-26.490968517949099
30
0
11
33.912829902938284
21
-36.74125702768449
31
0
0
LINE
5
111
100
AcDbEntity
8
0
100
AcDbLine
10
35.463886958482306
20
1.8999999999999984
30
0
11
35.463886958482306
21
-2.0000000000000022
31
0
0
LINE
5
112
100
AcDbEntity
8
0
100
AcDbLine
10
49.963886958482327
20
1.8999999999999972
30
0
11
35.463886958482306
21
1.8999999999999984
31
0
0
LINE
5
113
100
AcDbEntity
8
0
100
AcDbLine
10
35.463886958482306
20
-2.0000000000000022
30
0
11
49.959983987187179
21
-2.000000000000008
31
0
0
LINE
5
114
100
AcDbEntity
8
0
100
AcDbLine
10
23.733252071321573
20
26.420257839830448
30
0
11
26.490968517949099
21
23.662541393202908
31
0
0
LINE
5
115
100
AcDbEntity
8
0
100
AcDbLine
10
33.986300398526517
20
36.673306167035385
30
0
11
23.733252071321573
21
26.420257839830448
31
0
0
LINE
5
116
100
AcDbEntity
8
0
100
AcDbLine
10
26.490968517949099
20
23.662541393202908
30
0
11
36.741257027684497
21
33.912829902938284
31
0
0
LINE
5
117
100
AcDbEntity
8
0
100
AcDbLine
10
-1.8999999999999961
20
35.463886958482306
30
0
11
2.0000000000000044
21
35.463886958482306
31
0
0
LINE
5
118
100
AcDbEntity
8
0
100
AcDbLine
10
-1.8999999999999939
20
49.963886958482334
30
0
11
-1.8999999999999961
21
35.463886958482306
31
0
0
LINE
5
119
100
AcDbEntity
8
0
100
AcDbLine
10
2.0000000000000044
20
35.463886958482306
30
0
11
2.0000000000000111
21
49.959983987187179
31
0
0
LINE
5
120
100
AcDbEntity
8
0
100
AcDbLine
10
-26.420257839830448
20
23.733252071321573
30
0
11
-23.662541393202915
21
26.490968517949106
31
0
0
LINE
5
121
100
AcDbEntity
8
0
100
AcDbLine
10
-36.673306167035385
20
33.986300398526524
30
0
11
-26.420257839830448
21
23.733252071321573
31
0
0
LINE
5
122
100
AcDbEntity
8
0
100
AcDbLine
10
-23.662541393202915
20
26.490968517949106
30
0
11
-33.912829902938284
21
36.741257027684505
31
0
0
LINE
5
123
100
AcDbEntity
8
0
100
AcDbLine
10
-35.463886958482306
20
-1.8999999999999939
30
0
11
-35.463886958482306
21
2.0000000000000067
31
0
0
LINE
5
124
100
AcDbEntity
8
0
100
AcDbLine
10
-49.963886958482334
20
-1.899999999999991
30
0
11
-35.463886958482306
21
-1.8999999999999939
31
0
0
LINE
5
125
100
AcDbEntity
8
0
100
AcDbLine
10
-35.463886958482306
20
2.0000000000000067
30
0
11
-49.959983987187186
21
2.0000000000000142
31
0
0
LINE
5
126
100
AcDbEntity
8
0
100
AcDbLine
10
-23.733252071321573
20
-26.420257839830448
30
0
11
-26.490968517949106
21
-23.662541393202915
31
0
0
LINE
5
127
100
AcDbEntity
8
0
100
AcDbLine
10
-33.986300398526524
20
-36.673306167035385
30
0
11
-23.733252071321573
21
-26.420257839830448
31
0
0
LINE
5
128
100
AcDbEntity
8
0
100
AcDbLine
10
-26.490968517949106
20
-23.662541393202915
30
0
11
-36.741257027684505
21
-33.912829902938284
31
0
0
ARC
5
129
100
AcDbEntity
8
0
100
AcDbCircle
10
0
20
0
30
0
40
50
100
AcDbArc
50
227.17776395128035
51
267.70755722404408
0
ARC
5
130
100
AcDbEntity
8
0
100
AcDbCircle
10
0
20
0
30
0
40
50.000000000000014
100
AcDbArc
50
182.17776395128035
51
222.70755722404405
0
ARC
5
131
100
AcDbEntity
8
0
100
AcDbCircle
10
0
20
0
30
0
40
50
100
AcDbArc
50
137.17776395128033
51
177.70755722404425
0
ARC
5
132
100
AcDbEntity
8
0
100
AcDbCircle
10
0
20
0
30
0
40
50.000000000000014
100
AcDbArc
50
92.177763951280369
51
132.70755722404408
0
ARC
5
133
100
AcDbEntity
8
0
100
AcDbCircle
10
0
20
0
30
0
40
49.999999999999993
100
AcDbArc
50
47.177763951280347
51
87.707557224044095
0
ARC
5
134
100
AcDbEntity
8
0
100
AcDbCircle
10
0
20
0
30
0
40
50.000000000000007
100
AcDbArc
50
2.1777639512803781
51
42.707557224044095
0
ARC
5
135
100
AcDbEntity
8
0
100
AcDbCircle
10
0
20
0
30
0
40
49.999999999999993
100
AcDbArc
50
272.17776395128038
51
312.70755722404414
0
ARC
5
136
100
AcDbEntity
8
0
100
AcDbCircle
10
0
20
0
30
0
40
49.999999999999993
100
AcDbArc
50
317.17776395128033
51
357.70755722404419
0
ENDSEC
0
SECTION
2
OBJECTS
0
DICTIONARY
5
C
100
AcDbDictionary
3
ACAD_GROUP
350
D
3
ACAD_MLINESTYLE
350
17
0
DICTIONARY
5
D
100
AcDbDictionary
0
DICTIONARY
5
1A
330
C
100
AcDbDictionary
0
DICTIONARY
5
17
100
AcDbDictionary
0
ENDSEC
0
EOF
