  0
SECTION
  2
HEADER
  9
$ACADVER
  1
AC1014
  9
$HANDSEED
  5
FFFF
  9
$MEASUREMENT
 70
     1
  0
ENDSEC
  0
SECTION
  2
TABLES
  0
TABLE
  2
VPORT
  5
8
330
0
100
AcDbSymbolTable
 70
     4
  0
VPORT
  5
2E
330
8
100
AcDbSymbolTableRecord
100
AcDbViewportTableRecord
  2
*ACTIVE
 70
     0
 10
0.0
 20
0.0
 11
1.0
 21
1.0
 12
210.0
 22
148.5
 13
0.0
 23
0.0
 14
10.0
 24
10.0
 15
10.0
 25
10.0
 16
0.0
 26
0.0
 36
1.0
 17
0.0
 27
0.0
 37
0.0
 40
341.0
 41
1.24
 42
50.0
 43
0.0
 44
0.0
 50
0.0
 51
0.0
 71
     0
 72
   100
 73
     1
 74
     3
 75
     0
 76
     0
 77
     0
 78
     0
  0
ENDTAB
  0
TABLE
  2
LTYPE
  5
5
330
0
100
AcDbSymbolTable
 70
     1
  0
LTYPE
  5
14
330
5
100
AcDbSymbolTableRecord
100
AcDbLinetypeTableRecord
  2
BYBLOCK
 70
     0
  3

 72
    65
 73
     0
 40
0.0
  0
LTYPE
  5
15
330
5
100
AcDbSymbolTableRecord
100
AcDbLinetypeTableRecord
  2
BYLAYER
 70
     0
  3

 72
    65
 73
     0
 40
0.0
  0
LTYPE
  5
16
330
5
100
AcDbSymbolTableRecord
100
AcDbLinetypeTableRecord
  2
CONTINUOUS
 70
     0
  3
Solid line
 72
    65
 73
     0
 40
0.0
  0
ENDTAB
  0
TABLE
  2
LAYER
  5
2
100
AcDbSymbolTable
 70
1
  0
LAYER
  5
50
100
AcDbSymbolTableRecord
100
AcDbLayerTableRecord
  2
0
 70
0
  6
CONTINUOUS
  0
ENDTAB
  0
TABLE
  2
STYLE
  5
3
330
0
100
AcDbSymbolTable
 70
     1
  0
STYLE
  5
11
330
3
100
AcDbSymbolTableRecord
100
AcDbTextStyleTableRecord
  2
STANDARD
 70
     0
 40
0.0
 41
1.0
 50
0.0
 71
     0
 42
2.5
  3
txt
  4

  0
ENDTAB
  0
TABLE
  2
VIEW
  5
6
330
0
100
AcDbSymbolTable
 70
     0
  0
ENDTAB
  0
TABLE
  2
UCS
  5
7
330
0
100
AcDbSymbolTable
 70
     0
  0
ENDTAB
  0
TABLE
  2
APPID
  5
9
330
0
100
AcDbSymbolTable
 70
     2
  0
APPID
  5
12
330
9
100
AcDbSymbolTableRecord
100
AcDbRegAppTableRecord
  2
ACAD
 70
     0
  0
ENDTAB
  0
TABLE
  2
DIMSTYLE
  5
A
330
0
100
AcDbSymbolTable
 70
     1
  0
DIMSTYLE
105
27
330
A
100
AcDbSymbolTableRecord
100
AcDbDimStyleTableRecord
  2
ISO-25
 70
     0
  3

  4

  5

  6

  7

 40
1.0
 41
2.5
 42
0.625
 43
3.75
 44
1.25
 45
0.0
 46
0.0
 47
0.0
 48
0.0
140
2.5
141
2.5
142
0.0
143
0.03937007874016
144
1.0
145
0.0
146
1.0
147
0.625
 71
     0
 72
     0
 73
     0
 74
     0
 75
     0
 76
     0
 77
     1
 78
     8
170
     0
171
     3
172
     1
173
     0
174
     0
175
     0
176
     0
177
     0
178
     0
270
     2
271
     2
272
     2
273
     2
274
     3
340
11
275
     0
280
     0
281
     0
282
     0
283
     0
284
     8
285
     0
286
     0
287
     3
288
     0
  0
ENDTAB
  0
TABLE
  2
BLOCK_RECORD
  5
1
330
0
100
AcDbSymbolTable
 70
     1
  0
BLOCK_RECORD
  5
1F
330
1
100
AcDbSymbolTableRecord
100
AcDbBlockTableRecord
  2
*MODEL_SPACE
  0
BLOCK_RECORD
  5
1B
330
1
100
AcDbSymbolTableRecord
100
AcDbBlockTableRecord
  2
*PAPER_SPACE
  0
ENDTAB
  0
ENDSEC
  0
SECTION
  2
BLOCKS
  0
BLOCK
  5
20
330
1F
100
AcDbEntity
  8
0
100
AcDbBlockBegin
  2
*MODEL_SPACE
 70
     0
 10
0.0
 20
0.0
 30
0.0
  3
*MODEL_SPACE
  1

  0
ENDBLK
  5
21
330
1F
100
AcDbEntity
  8
0
100
AcDbBlockEnd
  0
BLOCK
  5
1C
330
1B
100
AcDbEntity
 67
     1
  8
0
100
AcDbBlockBegin
  2
*PAPER_SPACE
  1

  0
ENDBLK
  5
1D
330
1B
100
AcDbEntity
 67
     1
  8
0
100
AcDbBlockEnd
  0
ENDSEC
  0
SECTION
  2
ENTITIES
  0
SPLINE
  5
100
100
AcDbEntity
  8
0
 62
7
100
AcDbSpline
 70
0
 71
3
 72
10
 73
6
 74
4
 40
0.000000
 40
0.000000
 40
0.000000
 40
0.000000
 40
8.350425
 40
16.649926
 40
25.000351
 40
25.000351
 40
25.000351
 40
25.000351
 10
72.452284
 20
25.934073
 30
0.0
 10
74.166413
 20
28.136941
 30
0.0
 10
77.584218
 20
32.529241
 30
0.0
 10
80.825938
 20
40.355441
 30
0.0
 10
81.515013
 20
45.878020
 30
0.0
 10
81.860604
 20
48.647755
 30
0.0
 11
72.452284
 21
25.934073
 31
0.0
 11
77.278029
 21
32.748894
 31
0.0
 11
80.454112
 21
40.416632
 31
0.0
 11
81.860604
 21
48.647755
 31
0.0
  0
SPLINE
  5
101
100
AcDbEntity
  8
0
 62
7
100
AcDbSpline
 70
0
 71
3
 72
10
 73
6
 74
4
 40
0.000000
 40
0.000000
 40
0.000000
 40
0.000000
 40
8.350425
 40
16.649926
 40
25.000352
 40
25.000352
 40
25.000352
 40
25.000352
 10
46.721607
 20
13.508760
 30
0.0
 10
49.491342
 20
13.854349
 30
0.0
 10
55.013921
 20
14.543419
 30
0.0
 10
62.840124
 20
17.785132
 30
0.0
 10
67.232428
 20
21.202934
 30
0.0
 10
69.435297
 20
22.917061
 30
0.0
 11
46.721607
 21
13.508760
 31
0.0
 11
54.952731
 21
14.915245
 31
0.0
 11
62.620472
 21
18.091322
 31
0.0
 11
69.435297
 21
22.917061
 31
0.0
  0
SPLINE
  5
102
100
AcDbEntity
  8
0
 62
7
100
AcDbSpline
 70
0
 71
3
 72
10
 73
6
 74
4
 40
0.000000
 40
0.000000
 40
0.000000
 40
0.000000
 40
8.350428
 40
16.649931
 40
25.000359
 40
25.000359
 40
25.000359
 40
25.000359
 10
81.860604
 20
52.914422
 30
0.0
 10
81.515014
 20
55.684157
 30
0.0
 10
80.825940
 20
61.206738
 30
0.0
 10
77.584220
 20
69.032941
 30
0.0
 10
74.166413
 20
73.425244
 30
0.0
 10
72.452284
 20
75.628112
 30
0.0
 11
81.860604
 21
52.914422
 31
0.0
 11
80.454113
 21
61.145547
 31
0.0
 11
77.278030
 21
68.813288
 31
0.0
 11
72.452284
 21
75.628112
 31
0.0
  0
SPLINE
  5
103
100
AcDbEntity
  8
0
 62
7
100
AcDbSpline
 70
0
 71
3
 72
10
 73
6
 74
4
 40
0.000000
 40
0.000000
 40
0.000000
 40
0.000000
 40
8.350428
 40
16.649931
 40
25.000359
 40
25.000359
 40
25.000359
 40
25.000359
 10
69.435297
 20
78.645099
 30
0.0
 10
67.232429
 20
80.359228
 30
0.0
 10
62.840126
 20
83.777035
 30
0.0
 10
55.013923
 20
87.018755
 30
0.0
 10
49.491343
 20
87.707829
 30
0.0
 10
46.721607
 20
88.053419
 30
0.0
 11
69.435297
 21
78.645099
 31
0.0
 11
62.620473
 21
83.470845
 31
0.0
 11
54.952732
 21
86.646928
 31
0.0
 11
46.721607
 21
88.053419
 31
0.0
  0
SPLINE
  5
104
100
AcDbEntity
  8
0
 62
7
100
AcDbSpline
 70
0
 71
3
 72
10
 73
6
 74
4
 40
0.000000
 40
0.000000
 40
0.000000
 40
0.000000
 40
8.350428
 40
16.649932
 40
25.000360
 40
25.000360
 40
25.000360
 40
25.000360
 10
42.454940
 20
88.053419
 30
0.0
 10
39.685204
 20
87.707829
 30
0.0
 10
34.162623
 20
87.018755
 30
0.0
 10
26.336420
 20
83.777035
 30
0.0
 10
21.944117
 20
80.359228
 30
0.0
 10
19.741249
 20
78.645099
 30
0.0
 11
42.454940
 21
88.053419
 31
0.0
 11
34.223814
 21
86.646928
 31
0.0
 11
26.556073
 21
83.470845
 31
0.0
 11
19.741249
 21
78.645099
 31
0.0
  0
SPLINE
  5
105
100
AcDbEntity
  8
0
 62
7
100
AcDbSpline
 70
0
 71
3
 72
10
 73
6
 74
4
 40
0.000000
 40
0.000000
 40
0.000000
 40
0.000000
 40
8.350428
 40
16.649931
 40
25.000359
 40
25.000359
 40
25.000359
 40
25.000359
 10
16.724260
 20
75.628112
 30
0.0
 10
15.010130
 20
73.425244
 30
0.0
 10
11.592325
 20
69.032941
 30
0.0
 10
8.350605
 20
61.206738
 30
0.0
 10
7.661532
 20
55.684157
 30
0.0
 10
7.315941
 20
52.914422
 30
0.0
 11
16.724260
 21
75.628112
 31
0.0
 11
11.898514
 21
68.813288
 31
0.0
 11
8.722432
 21
61.145547
 31
0.0
 11
7.315941
 21
52.914422
 31
0.0
  0
SPLINE
  5
106
100
AcDbEntity
  8
0
 62
7
100
AcDbSpline
 70
0
 71
3
 72
10
 73
6
 74
4
 40
0.000000
 40
0.000000
 40
0.000000
 40
0.000000
 40
8.350425
 40
16.649925
 40
25.000350
 40
25.000350
 40
25.000350
 40
25.000350
 10
7.315941
 20
48.647755
 30
0.0
 10
7.661532
 20
45.878020
 30
0.0
 10
8.350607
 20
40.355442
 30
0.0
 10
11.592326
 20
32.529242
 30
0.0
 10
15.010131
 20
28.136941
 30
0.0
 10
16.724260
 20
25.934073
 30
0.0
 11
7.315941
 21
48.647755
 31
0.0
 11
8.722433
 21
40.416633
 31
0.0
 11
11.898516
 21
32.748894
 31
0.0
 11
16.724260
 21
25.934073
 31
0.0
  0
LWPOLYLINE
  5
107
100
AcDbEntity
  8
0
 62
7
100
AcDbPolyline
 90
2
 70
0
 10
27.660846
 20
36.870647
 30
0.0
 10
16.724260
 20
25.934073
 30
0.0
  0
LWPOLYLINE
  5
108
100
AcDbEntity
  8
0
 62
7
100
AcDbPolyline
 90
3
 70
0
 10
19.741249
 20
22.917061
 30
0.0
 10
30.677832
 20
33.853652
 30
0.0
 10
27.660846
 20
36.870647
 30
0.0
  0
LWPOLYLINE
  5
109
100
AcDbEntity
  8
0
 62
7
100
AcDbPolyline
 90
2
 70
0
 10
22.782608
 20
52.914422
 30
0.0
 10
7.315941
 20
52.914422
 30
0.0
  0
LWPOLYLINE
  5
10a
100
AcDbEntity
  8
0
 62
7
100
AcDbPolyline
 90
3
 70
0
 10
7.315941
 20
48.647755
 30
0.0
 10
22.782608
 20
48.647755
 30
0.0
 10
22.782608
 20
52.914422
 30
0.0
  0
LWPOLYLINE
  5
10b
100
AcDbEntity
  8
0
 62
7
100
AcDbPolyline
 90
2
 70
0
 10
30.677832
 20
67.708513
 30
0.0
 10
19.741249
 20
78.645099
 30
0.0
  0
LWPOLYLINE
  5
10c
100
AcDbEntity
  8
0
 62
7
100
AcDbPolyline
 90
3
 70
0
 10
16.724260
 20
75.628112
 30
0.0
 10
27.660846
 20
64.691527
 30
0.0
 10
30.677832
 20
67.708513
 30
0.0
  0
LWPOLYLINE
  5
10d
100
AcDbEntity
  8
0
 62
7
100
AcDbPolyline
 90
2
 70
0
 10
46.721607
 20
72.586753
 30
0.0
 10
46.721607
 20
88.053419
 30
0.0
  0
LWPOLYLINE
  5
10e
100
AcDbEntity
  8
0
 62
7
100
AcDbPolyline
 90
3
 70
0
 10
42.454940
 20
88.053419
 30
0.0
 10
42.454940
 20
72.586753
 30
0.0
 10
46.721607
 20
72.586753
 30
0.0
  0
LWPOLYLINE
  5
10f
100
AcDbEntity
  8
0
 62
7
100
AcDbPolyline
 90
2
 70
0
 10
61.515698
 20
64.691527
 30
0.0
 10
72.452284
 20
75.628112
 30
0.0
  0
LWPOLYLINE
  5
110
100
AcDbEntity
  8
0
 62
7
100
AcDbPolyline
 90
3
 70
0
 10
69.435297
 20
78.645099
 30
0.0
 10
58.498712
 20
67.708513
 30
0.0
 10
61.515698
 20
64.691527
 30
0.0
  0
LWPOLYLINE
  5
111
100
AcDbEntity
  8
0
 62
7
100
AcDbPolyline
 90
2
 70
0
 10
66.393938
 20
48.647755
 30
0.0
 10
81.860604
 20
48.647755
 30
0.0
  0
LWPOLYLINE
  5
112
100
AcDbEntity
  8
0
 62
7
100
AcDbPolyline
 90
3
 70
0
 10
81.860604
 20
52.914422
 30
0.0
 10
66.393938
 20
52.914422
 30
0.0
 10
66.393938
 20
48.647755
 30
0.0
  0
LWPOLYLINE
  5
113
100
AcDbEntity
  8
0
 62
7
100
AcDbPolyline
 90
2
 70
0
 10
58.498712
 20
33.853652
 30
0.0
 10
69.435297
 20
22.917061
 30
0.0
  0
LWPOLYLINE
  5
114
100
AcDbEntity
  8
0
 62
7
100
AcDbPolyline
 90
3
 70
0
 10
72.452284
 20
25.934073
 30
0.0
 10
61.515698
 20
36.870647
 30
0.0
 10
58.498712
 20
33.853652
 30
0.0
  0
LWPOLYLINE
  5
115
100
AcDbEntity
  8
0
 62
7
100
AcDbPolyline
 90
2
 70
0
 10
46.721607
 20
13.508760
 30
0.0
 10
46.721607
 20
28.975413
 30
0.0
  0
LWPOLYLINE
  5
116
100
AcDbEntity
  8
0
 62
7
100
AcDbPolyline
 90
2
 70
0
 10
42.454940
 20
28.975413
 30
0.0
 10
42.454940
 20
13.508760
 30
0.0
  0
SPLINE
  5
117
100
AcDbEntity
  8
0
 62
7
100
AcDbSpline
 70
0
 71
3
 72
10
 73
6
 74
4
 40
0.000000
 40
0.000000
 40
0.000000
 40
0.000000
 40
8.350426
 40
16.649927
 40
25.000352
 40
25.000352
 40
25.000352
 40
25.000352
 10
19.741249
 20
22.917061
 30
0.0
 10
21.944118
 20
21.202934
 30
0.0
 10
26.336422
 20
17.785132
 30
0.0
 10
34.162625
 20
14.543419
 30
0.0
 10
39.685205
 20
13.854349
 30
0.0
 10
42.454940
 20
13.508760
 30
0.0
 11
19.741249
 21
22.917061
 31
0.0
 11
26.556074
 21
18.091322
 31
0.0
 11
34.223816
 21
14.915245
 31
0.0
 11
42.454940
 21
13.508760
 31
0.0
  0
LWPOLYLINE
  5
118
100
AcDbEntity
  8
0
 62
7
100
AcDbPolyline
 90
2
 70
0
 10
46.721607
 20
28.975413
 30
0.0
 10
42.454940
 20
28.975413
 30
0.0
  0
SPLINE
  5
119
100
AcDbEntity
  8
0
 62
7
100
AcDbSpline
 70
0
 71
3
 72
25
 73
21
 74
19
 40
0.000000
 40
0.000000
 40
0.000000
 40
0.000000
 40
3.722284
 40
7.391297
 40
11.113581
 40
14.835866
 40
18.504878
 40
22.227163
 40
25.949447
 40
29.618459
 40
33.340744
 40
37.063028
 40
40.732041
 40
44.454325
 40
48.176609
 40
51.845622
 40
55.567906
 40
59.290191
 40
62.959203
 40
66.681488
 40
66.681488
 40
66.681488
 40
66.681488
 10
55.254940
 20
50.781087
 30
0.0
 10
55.127495
 20
52.028176
 30
0.0
 10
54.874429
 20
54.504508
 30
0.0
 10
52.911051
 20
57.777018
 30
0.0
 10
50.036333
 20
60.210043
 30
0.0
 10
46.476536
 20
61.500439
 30
0.0
 10
42.699191
 20
61.500439
 30
0.0
 10
39.144380
 20
60.210043
 30
0.0
 10
36.249755
 20
57.777018
 30
0.0
 10
34.360342
 20
54.504508
 30
0.0
 10
33.700654
 20
50.781087
 30
0.0
 10
34.360342
 20
47.057666
 30
0.0
 10
36.249755
 20
43.785156
 30
0.0
 10
39.144380
 20
41.352130
 30
0.0
 10
42.699191
 20
40.061735
 30
0.0
 10
46.476536
 20
40.061735
 30
0.0
 10
50.036333
 20
41.352130
 30
0.0
 10
52.911051
 20
43.785156
 30
0.0
 10
54.874429
 20
47.057666
 30
0.0
 10
55.127495
 20
49.533997
 30
0.0
 10
55.254940
 20
50.781087
 30
0.0
 11
55.254940
 21
50.781087
 31
0.0
 11
54.605619
 21
54.446299
 31
0.0
 11
52.771113
 21
57.623758
 31
0.0
 11
49.921606
 21
60.018692
 31
0.0
 11
46.422778
 21
61.288970
 31
0.0
 11
42.753766
 21
61.288970
 31
0.0
 11
39.254938
 21
60.018692
 31
0.0
 11
36.405431
 21
57.623758
 31
0.0
 11
34.570925
 21
54.446299
 31
0.0
 11
33.921604
 21
50.781087
 31
0.0
 11
34.570925
 21
47.115874
 31
0.0
 11
36.405431
 21
43.938416
 31
0.0
 11
39.254938
 21
41.543482
 31
0.0
 11
42.753766
 21
40.273204
 31
0.0
 11
46.422778
 21
40.273204
 31
0.0
 11
49.921606
 21
41.543482
 31
0.0
 11
52.771113
 21
43.938416
 31
0.0
 11
54.605619
 21
47.115874
 31
0.0
 11
55.254940
 21
50.781087
 31
0.0
  0
LWPOLYLINE
  5
11a
100
AcDbEntity
  8
0
 62
7
100
AcDbPolyline
 90
1
 70
1
 10
55.254940
 20
50.781087
 30
0.0
  0
ENDSEC
  0
SECTION
  2
OBJECTS
  0
DICTIONARY
  5
C
330
0
100
AcDbDictionary
  3
ACAD_GROUP
350
D
  3
ACAD_MLINESTYLE
350
17
  0
DICTIONARY
  5
D
330
C
100
AcDbDictionary
  0
DICTIONARY
  5
1A
330
C
100
AcDbDictionary
  0
DICTIONARY
  5
17
330
C
100
AcDbDictionary
  3
STANDARD
350
18
  0
DICTIONARY
  5
19
330
C
100
AcDbDictionary
  0
ENDSEC
  0
EOF
