0
SECTION
2
HEADER
9
$INSUNITS
70
4
9
$ACADVER
1
AC1014
9
$HANDSEED
5
FFFF
0
ENDSEC
0
SECTION
2
TABLES
0
TABLE
2
VPORT
5
8
100
AcDbSymbolTable
0
ENDTAB
0
TABLE
2
LTYPE
5
5
100
AcDbSymbolTable
0
LTYPE
5
14
100
AcDbSymbolTableRecord
100
AcDbLinetypeTableRecord
2
BYBLOCK
70
0
0
LTYPE
5
15
100
AcDbSymbolTableRecord
100
AcDbLinetypeTableRecord
2
BYLAYER
70
0
0
ENDTAB
0
TABLE
2
LAYER
5
2
100
AcDbSymbolTable
70
2
0
LAYER
5
50
100
AcDbSymbolTableRecord
100
AcDbLayerTableRecord
2
0
70
0
6
CONTINUOUS
0
ENDTAB
0
TABLE
2
STYLE
5
3
100
AcDbSymbolTable
70
1
0
STYLE
5
11
100
AcDbSymbolTableRecord
100
AcDbTextStyleTableRecord
2
STANDARD
70
0
0
ENDTAB
0
TABLE
2
VIEW
5
6
100
AcDbSymbolTable
70
0
0
ENDTAB
0
TABLE
2
UCS
5
7
100
AcDbSymbolTable
70
0
0
ENDTAB
0
TABLE
2
APPID
5
9
100
AcDbSymbolTable
70
2
0
APPID
5
12
100
AcDbSymbolTableRecord
100
AcDbRegAppTableRecord
2
ACAD
70
0
0
ENDTAB
0
TABLE
2
DIMSTYLE
5
A
100
AcDbSymbolTable
70
1
0
ENDTAB
0
TABLE
2
BLOCK_RECORD
5
1
100
AcDbSymbolTable
70
1
0
BLOCK_RECORD
5
1F
100
AcDbSymbolTableRecord
100
AcDbBlockTableRecord
2
*MODEL_SPACE
0
BLOCK_RECORD
5
1B
100
AcDbSymbolTableRecord
100
AcDbBlockTableRecord
2
*PAPER_SPACE
0
ENDTAB
0
ENDSEC
0
SECTION
2
BLOCKS
0
BLOCK
5
20
100
AcDbEntity
100
AcDbBlockBegin
2
*MODEL_SPACE
0
ENDBLK
5
21
100
AcDbEntity
100
AcDbBlockEnd
0
BLOCK
5
1C
100
AcDbEntity
100
AcDbBlockBegin
2
*PAPER_SPACE
0
ENDBLK
5
1D
100
AcDbEntity
100
AcDbBlockEnd
0
ENDSEC
0
SECTION
2
ENTITIES
0
CIRCLE
5
100
100
AcDbEntity
8
0
100
AcDbCircle
10
0
20
0
30
0
40
19.399999999999999
0
LINE
5
101
100
AcDbEntity
8
0
100
AcDbLine
10
0
20
-38.499999999999957
30
0
11
0
21
0
31
0
0
LINE
5
102
100
AcDbEntity
8
0
100
AcDbLine
10
0
20
0
30
0
11
0
21
-38.5
31
0
0
LINE
5
103
100
AcDbEntity
8
0
100
AcDbLine
10
1.8999999999999999
20
-23.95308830250179
30
0
11
-1.8999999999999999
21
-23.95308830250179
31
0
0
LINE
5
104
100
AcDbEntity
8
0
100
AcDbLine
10
-1.8999999999999999
20
-23.95308830250179
30
0
11
-1.9000000000000035
21
-38.453088302501797
31
0
0
LINE
5
105
100
AcDbEntity
8
0
100
AcDbLine
10
1.8999999999999999
20
-38.45308830250179
30
0
11
1.8999999999999999
21
-23.95308830250179
31
0
0
LINE
5
106
100
AcDbEntity
8
0
100
AcDbLine
10
1.8999999999999999
20
-23.95308830250179
30
0
11
0
21
-38.499999999999957
31
0
0
LINE
5
107
100
AcDbEntity
8
0
100
AcDbLine
10
-1.8999999999999999
20
-23.95308830250179
30
0
11
6.9741613528896904
21
-91.89605756031105
31
0
0
LINE
5
108
100
AcDbEntity
8
0
100
AcDbLine
10
18.28089405331362
20
-15.593888284804745
30
0
11
15.59388828480474
21
-18.280894053313627
31
0
0
LINE
5
109
100
AcDbEntity
8
0
100
AcDbLine
10
28.53394238051856
20
-25.846936612009692
30
0
11
18.28089405331362
21
-15.593888284804745
31
0
0
LINE
5
110
100
AcDbEntity
8
0
100
AcDbLine
10
15.59388828480474
20
-18.280894053313627
30
0
11
25.846936612009689
21
-28.533942380518575
31
0
0
LINE
5
111
100
AcDbEntity
8
0
100
AcDbLine
10
23.95308830250179
20
1.8999999999999986
30
0
11
23.95308830250179
21
-1.9000000000000015
31
0
0
LINE
5
112
100
AcDbEntity
8
0
100
AcDbLine
10
38.453088302501797
20
1.8999999999999977
30
0
11
23.95308830250179
21
1.8999999999999986
31
0
0
LINE
5
113
100
AcDbEntity
8
0
100
AcDbLine
10
23.95308830250179
20
-1.9000000000000015
30
0
11
38.45308830250179
21
-1.9000000000000057
31
0
0
LINE
5
114
100
AcDbEntity
8
0
100
AcDbLine
10
15.593888284804745
20
18.28089405331362
30
0
11
18.280894053313627
21
15.59388828480474
31
0
0
LINE
5
115
100
AcDbEntity
8
0
100
AcDbLine
10
25.846936612009692
20
28.53394238051856
30
0
11
15.593888284804745
21
18.28089405331362
31
0
0
LINE
5
116
100
AcDbEntity
8
0
100
AcDbLine
10
18.280894053313627
20
15.59388828480474
30
0
11
28.533942380518571
21
25.846936612009689
31
0
0
LINE
5
117
100
AcDbEntity
8
0
100
AcDbLine
10
-1.899999999999997
20
23.95308830250179
30
0
11
1.900000000000003
21
23.95308830250179
31
0
0
LINE
5
118
100
AcDbEntity
8
0
100
AcDbLine
10
-1.8999999999999952
20
38.453088302501804
30
0
11
-1.899999999999997
21
23.95308830250179
31
0
0
LINE
5
119
100
AcDbEntity
8
0
100
AcDbLine
10
1.900000000000003
20
23.95308830250179
30
0
11
1.9000000000000081
21
38.45308830250179
31
0
0
LINE
5
120
100
AcDbEntity
8
0
100
AcDbLine
10
-18.28089405331362
20
15.593888284804747
30
0
11
-15.593888284804741
21
18.280894053313631
31
0
0
LINE
5
121
100
AcDbEntity
8
0
100
AcDbLine
10
-28.53394238051856
20
25.846936612009696
30
0
11
-18.28089405331362
21
15.593888284804747
31
0
0
LINE
5
122
100
AcDbEntity
8
0
100
AcDbLine
10
-15.593888284804741
20
18.280894053313631
30
0
11
-25.846936612009689
21
28.533942380518575
31
0
0
LINE
5
123
100
AcDbEntity
8
0
100
AcDbLine
10
-23.95308830250179
20
-1.8999999999999955
30
0
11
-23.95308830250179
21
1.9000000000000041
31
0
0
LINE
5
124
100
AcDbEntity
8
0
100
AcDbLine
10
-38.453088302501804
20
-1.899999999999993
30
0
11
-23.95308830250179
21
-1.8999999999999955
31
0
0
LINE
5
125
100
AcDbEntity
8
0
100
AcDbLine
10
-23.95308830250179
20
1.9000000000000041
30
0
11
-38.453088302501797
21
1.9000000000000103
31
0
0
LINE
5
126
100
AcDbEntity
8
0
100
AcDbLine
10
-15.593888284804747
20
-18.28089405331362
30
0
11
-18.280894053313631
21
-15.593888284804741
31
0
0
LINE
5
127
100
AcDbEntity
8
0
100
AcDbLine
10
-25.846936612009696
20
-28.53394238051856
30
0
11
-15.593888284804747
21
-18.28089405331362
31
0
0
LINE
5
128
100
AcDbEntity
8
0
100
AcDbLine
10
-18.280894053313631
20
-15.593888284804741
30
0
11
-28.533942380518575
21
-25.846936612009689
31
0
0
ARC
5
129
100
AcDbEntity
8
0
100
AcDbCircle
10
0
20
0
30
0
40
38.500000000000007
100
AcDbArc
50
227.82873294087713
51
267.17126705912278
0
ARC
5
130
100
AcDbEntity
8
0
100
AcDbCircle
10
0
20
0
30
0
40
38.500000000000007
100
AcDbArc
50
182.82873294087719
51
222.17126705912278
0
ARC
5
131
100
AcDbEntity
8
0
100
AcDbCircle
10
0
20
0
30
0
40
38.500000000000007
100
AcDbArc
50
137.82873294087716
51
177.17126705912281
0
ARC
5
132
100
AcDbEntity
8
0
100
AcDbCircle
10
0
20
0
30
0
40
38.500000000000007
100
AcDbArc
50
92.828732940877174
51
132.17126705912281
0
ARC
5
133
100
AcDbEntity
8
0
100
AcDbCircle
10
0
20
0
30
0
40
38.500000000000007
100
AcDbArc
50
47.828732940877167
51
87.171267059122812
0
ARC
5
134
100
AcDbEntity
8
0
100
AcDbCircle
10
0
20
0
30
0
40
38.500000000000007
100
AcDbArc
50
2.8287329408771793
51
42.171267059122826
0
ARC
5
135
100
AcDbEntity
8
0
100
AcDbCircle
10
0
20
0
30
0
40
38.5
100
AcDbArc
50
272.82873294087716
51
312.17126705912284
0
ARC
5
136
100
AcDbEntity
8
0
100
AcDbCircle
10
0
20
0
30
0
40
38.500000000000007
100
AcDbArc
50
317.82873294087716
51
357.17126705912295
0
ENDSEC
0
SECTION
2
OBJECTS
0
DICTIONARY
5
C
100
AcDbDictionary
3
ACAD_GROUP
350
D
3
ACAD_MLINESTYLE
350
17
0
DICTIONARY
5
D
100
AcDbDictionary
0
DICTIONARY
5
1A
330
C
100
AcDbDictionary
0
DICTIONARY
5
17
100
AcDbDictionary
0
ENDSEC
0
EOF
