<?xml version="1.0" encoding="UTF-8" standalone="no"?>
<svg
   xmlns:dc="http://purl.org/dc/elements/1.1/"
   xmlns:cc="http://creativecommons.org/ns#"
   xmlns:rdf="http://www.w3.org/1999/02/22-rdf-syntax-ns#"
   xmlns:svg="http://www.w3.org/2000/svg"
   xmlns="http://www.w3.org/2000/svg"
   xmlns:sodipodi="http://sodipodi.sourceforge.net/DTD/sodipodi-0.dtd"
   xmlns:inkscape="http://www.inkscape.org/namespaces/inkscape"
   width="600mm"
   height="300mm"
   version="1.1"
   id="svg5007"
   sodipodi:docname="woodlight_Blatt_gross_creeper.svg"
   inkscape:version="0.92.2 5c3e80d, 2017-08-06">
  <metadata
     id="metadata5011">
    <rdf:RDF>
      <cc:Work
         rdf:about="">
        <dc:format>image/svg+xml</dc:format>
        <dc:type
           rdf:resource="http://purl.org/dc/dcmitype/StillImage" />
        <dc:title></dc:title>
      </cc:Work>
    </rdf:RDF>
  </metadata>
  <sodipodi:namedview
     pagecolor="#ffffff"
     bordercolor="#666666"
     borderopacity="1"
     objecttolerance="10"
     gridtolerance="10"
     guidetolerance="10"
     inkscape:pageopacity="0"
     inkscape:pageshadow="2"
     inkscape:window-width="1280"
     inkscape:window-height="719"
     id="namedview5009"
     showgrid="false"
     inkscape:measure-start="-1190.61,140.072"
     inkscape:measure-end="463.374,296.765"
     inkscape:zoom="0.22071533"
     inkscape:cx="1370.8357"
     inkscape:cy="708.19984"
     inkscape:window-x="0"
     inkscape:window-y="1"
     inkscape:window-maximized="1"
     inkscape:current-layer="g9901"
     inkscape:document-units="mm"
     units="mm"
     inkscape:snap-global="false" />
  <desc
     id="desc1543">C:\Users\Andreas Reheis\Documents\Laser\woodlight\woodlight.dxf - scale = 1.000000, origin = (0.000000, 0.000000), method = file</desc>
  <defs
     id="defs1557">
    <marker
       id="DistanceX"
       orient="auto"
       refX="0"
       refY="0"
       style="overflow:visible">
      <path
         d="M 3,-3 -3,3 M 0,-5 V 5"
         style="stroke:#000000;stroke-width:0.5"
         id="path1545"
         inkscape:connector-curvature="0" />
    </marker>
    <pattern
       height="8"
       id="Hatch"
       patternUnits="userSpaceOnUse"
       width="8"
       x="0"
       y="0">
      <path
         d="M8 4 l-4,4"
         linecap="square"
         stroke="#000000"
         stroke-width="0.25"
         id="path1548" />
      <path
         d="M6 2 l-4,4"
         linecap="square"
         stroke="#000000"
         stroke-width="0.25"
         id="path1550" />
      <path
         d="M4 0 l-4,4"
         linecap="square"
         stroke="#000000"
         stroke-width="0.25"
         id="path1552" />
    </pattern>
    <symbol
       id="*MODEL_SPACE" />
    <symbol
       id="*PAPER_SPACE" />
  </defs>
  <g
     inkscape:groupmode="layer"
     inkscape:label="PROFILEEDGES"
     id="g5003"
     transform="translate(742.94235,-595.93567)">
    <g
       id="g9901">
      <g
         id="g9915">
        <path
           inkscape:tile-y0="0.067421404"
           inkscape:tile-x0="0.030934244"
           inkscape:tile-h="740.22002"
           inkscape:tile-w="490.80766"
           inkscape:tile-cy="370.17655"
           inkscape:tile-cx="245.43317"
           sodipodi:nodetypes="ccccccccccccccccccccccc"
           inkscape:connector-curvature="0"
           id="path9893"
           d="m -180.53066,1039.8382 c 23.46815,39.6717 32.07973,92.6515 30.8341,137.8843 2.30773,40.5203 2.433,81.278 6.11397,121.6492 5.58484,25.9527 32.82832,35.9369 55.649669,41.6964 31.08229,7.4635 63.1907,-0.072 93.7923997,-6.1532 83.0983303,-19.1074 157.9507313,-70.945 205.5944613,-141.6379 30.0324,-46.1394 50.76906,-99.0543 55.61039,-154.0756 -0.56699,-22.4417 -15.17396,-45.55734 -37.22104,-52.25734 -6.08584,-1.2355 -10.81112,-1.6205 -17.23709,-1.6655 -25.57301,-1.354 -41.07746,0.5524 -66.33861,-2.5108 -22.37957,-0.7668 -21.57976,-17.4912 0,-16.8893 28.14346,-1.5073 55.67813,-0.059 83.5757,-3.5795 29.31607,-9.1206 43.41402,-44.2582 34.78557,-72.5331 -15.40512,-93.1064 -71.20073,-178.9148 -151.07373,-229.4332 -45.608211,-30.2125 -98.879521,-48.01821 -153.176411,-53.8022 -30.74594,-4.89081 -64.045239,1.66789 -89.518269,19.6402 -21.57359,17.9902 -14.74077,48.2811 -17.40761,72.8624 -2.06168,38.6433 -3.07328,77.3219 -4.09854,115.9582 -3.02366,31.3713 -10.70072,63.5992 -27.19411,90.4469 -0.2963,0.5137 -9.95133,14.3098 -15.03673,18.6092 -12.75382,11.3299 -30.45471,22.1055 -29.76901,41.6342 0.43583,14.4582 -1.88406,31.0674 9.83955,42.31704 11.38413,9.6316 24.67466,20.0666 32.27534,31.8396"
           style="fill:none;stroke:#ff0000;stroke-opacity:1" />
        <path
           sodipodi:nodetypes="sccccccccccccccscccccccccscccccccccccsccccccc"
           inkscape:connector-curvature="0"
           id="path9895"
           d="m 94.05919,934.82577 c -6.57307,0.0379 -14.332971,0.2308 -17.244014,0.42922 l -5.292888,0.36071 v 39.51282 39.51288 h 16.737592 16.73759 v 18.7664 18.7663 H 56.306278 7.61509 v -19.0199 -19.0201 H -8.3616803 -14.286475 V 975.58692 937.03969 H -9.1225033 6.093498 V 917.25886 897.4781 h 49.959199 49.959193 v 18.63959 18.63965 z m -152.887231,0.18516 h -32.46077 V 896.4637 857.91652 h 32.46077 32.460766 v 38.54718 38.54723 z m -0.08194,156.21757 h -32.03554 l 0.33995,-29.5444 c 0.18693,-16.2494 0.48735,-33.4815 0.66758,-38.2935 l 0.3277,-8.7492 h 31.367891 31.367953 v 38.2935 38.2936 z"
           style="fill:none;stroke:#ff0000;stroke-width:0.50719976;stroke-opacity:1" />
      </g>
      <g
         id="g9921"
         transform="translate(-511.97168,-9.0614457)">
        <path
           style="fill:none;stroke:#ff0000;stroke-opacity:1"
           d="m -180.53066,1039.8382 c 23.46815,39.6717 32.07973,92.6515 30.8341,137.8843 2.30773,40.5203 2.433,81.278 6.11397,121.6492 5.58484,25.9527 32.82832,35.9369 55.649669,41.6964 31.08229,7.4635 63.1907,-0.072 93.7923997,-6.1532 83.0983303,-19.1074 157.9507313,-70.945 205.5944613,-141.6379 30.0324,-46.1394 50.76906,-99.0543 55.61039,-154.0756 -0.56699,-22.4417 -15.17396,-45.55734 -37.22104,-52.25734 -6.08584,-1.2355 -10.81112,-1.6205 -17.23709,-1.6655 -25.57301,-1.354 -41.07746,0.5524 -66.33861,-2.5108 -22.37957,-0.7668 -21.57976,-17.4912 0,-16.8893 28.14346,-1.5073 55.67813,-0.059 83.5757,-3.5795 29.31607,-9.1206 43.41402,-44.2582 34.78557,-72.5331 -15.40512,-93.1064 -71.20073,-178.9148 -151.07373,-229.4332 -45.608211,-30.2125 -98.879521,-48.01821 -153.176411,-53.8022 -30.74594,-4.89081 -64.045239,1.66789 -89.518269,19.6402 -21.57359,17.9902 -14.74077,48.2811 -17.40761,72.8624 -2.06168,38.6433 -3.07328,77.3219 -4.09854,115.9582 -3.02366,31.3713 -10.70072,63.5992 -27.19411,90.4469 -0.2963,0.5137 -9.95133,14.3098 -15.03673,18.6092 -12.75382,11.3299 -30.45471,22.1055 -29.76901,41.6342 0.43583,14.4582 -1.88406,31.0674 9.83955,42.31704 11.38413,9.6316 24.67466,20.0666 32.27534,31.8396"
           id="path9917"
           inkscape:connector-curvature="0"
           sodipodi:nodetypes="ccccccccccccccccccccccc"
           inkscape:tile-cx="245.43317"
           inkscape:tile-cy="370.17655"
           inkscape:tile-w="490.80766"
           inkscape:tile-h="740.22002"
           inkscape:tile-x0="0.030934244"
           inkscape:tile-y0="0.067421404" />
        <path
           style="fill:none;stroke:#ff0000;stroke-width:0.50719976;stroke-opacity:1"
           d="m 94.05919,934.82577 c -6.57307,0.0379 -14.332971,0.2308 -17.244014,0.42922 l -5.292888,0.36071 v 39.51282 39.51288 h 16.737592 16.73759 v 18.7664 18.7663 H 56.306278 7.61509 v -19.0199 -19.0201 H -8.3616803 -14.286475 V 975.58692 937.03969 H -9.1225033 6.093498 V 917.25886 897.4781 h 49.959199 49.959193 v 18.63959 18.63965 z m -152.887231,0.18516 h -32.46077 V 896.4637 857.91652 h 32.46077 32.460766 v 38.54718 38.54723 z m -0.08194,156.21757 h -32.03554 l 0.33995,-29.5444 c 0.18693,-16.2494 0.48735,-33.4815 0.66758,-38.2935 l 0.3277,-8.7492 h 31.367891 31.367953 v 38.2935 38.2936 z"
           id="path9919"
           inkscape:connector-curvature="0"
           sodipodi:nodetypes="sccccccccccccccscccccccccscccccccccccsccccccc" />
      </g>
      <g
         id="g9927"
         transform="translate(1208.6416,-4.5307229)">
        <path
           style="fill:none;stroke:#ff0000;stroke-opacity:1"
           d="m -180.53066,1039.8382 c 23.46815,39.6717 32.07973,92.6515 30.8341,137.8843 2.30773,40.5203 2.433,81.278 6.11397,121.6492 5.58484,25.9527 32.82832,35.9369 55.649669,41.6964 31.08229,7.4635 63.1907,-0.072 93.7923997,-6.1532 83.0983303,-19.1074 157.9507313,-70.945 205.5944613,-141.6379 30.0324,-46.1394 50.76906,-99.0543 55.61039,-154.0756 -0.56699,-22.4417 -15.17396,-45.55734 -37.22104,-52.25734 -6.08584,-1.2355 -10.81112,-1.6205 -17.23709,-1.6655 -25.57301,-1.354 -41.07746,0.5524 -66.33861,-2.5108 -22.37957,-0.7668 -21.57976,-17.4912 0,-16.8893 28.14346,-1.5073 55.67813,-0.059 83.5757,-3.5795 29.31607,-9.1206 43.41402,-44.2582 34.78557,-72.5331 -15.40512,-93.1064 -71.20073,-178.9148 -151.07373,-229.4332 -45.608211,-30.2125 -98.879521,-48.01821 -153.176411,-53.8022 -30.74594,-4.89081 -64.045239,1.66789 -89.518269,19.6402 -21.57359,17.9902 -14.74077,48.2811 -17.40761,72.8624 -2.06168,38.6433 -3.07328,77.3219 -4.09854,115.9582 -3.02366,31.3713 -10.70072,63.5992 -27.19411,90.4469 -0.2963,0.5137 -9.95133,14.3098 -15.03673,18.6092 -12.75382,11.3299 -30.45471,22.1055 -29.76901,41.6342 0.43583,14.4582 -1.88406,31.0674 9.83955,42.31704 11.38413,9.6316 24.67466,20.0666 32.27534,31.8396"
           id="path9923"
           inkscape:connector-curvature="0"
           sodipodi:nodetypes="ccccccccccccccccccccccc"
           inkscape:tile-cx="245.43317"
           inkscape:tile-cy="370.17655"
           inkscape:tile-w="490.80766"
           inkscape:tile-h="740.22002"
           inkscape:tile-x0="0.030934244"
           inkscape:tile-y0="0.067421404" />
        <path
           style="fill:none;stroke:#ff0000;stroke-width:0.50719976;stroke-opacity:1"
           d="m 94.05919,934.82577 c -6.57307,0.0379 -14.332971,0.2308 -17.244014,0.42922 l -5.292888,0.36071 v 39.51282 39.51288 h 16.737592 16.73759 v 18.7664 18.7663 H 56.306278 7.61509 v -19.0199 -19.0201 H -8.3616803 -14.286475 V 975.58692 937.03969 H -9.1225033 6.093498 V 917.25886 897.4781 h 49.959199 49.959193 v 18.63959 18.63965 z m -152.887231,0.18516 h -32.46077 V 896.4637 857.91652 h 32.46077 32.460766 v 38.54718 38.54723 z m -0.08194,156.21757 h -32.03554 l 0.33995,-29.5444 c 0.18693,-16.2494 0.48735,-33.4815 0.66758,-38.2935 l 0.3277,-8.7492 h 31.367891 31.367953 v 38.2935 38.2936 z"
           id="path9925"
           inkscape:connector-curvature="0"
           sodipodi:nodetypes="sccccccccccccccscccccccccscccccccccccsccccccc" />
      </g>
      <g
         transform="translate(705.73136)"
         id="g9933">
        <path
           inkscape:tile-y0="0.067421404"
           inkscape:tile-x0="0.030934244"
           inkscape:tile-h="740.22002"
           inkscape:tile-w="490.80766"
           inkscape:tile-cy="370.17655"
           inkscape:tile-cx="245.43317"
           sodipodi:nodetypes="ccccccccccccccccccccccc"
           inkscape:connector-curvature="0"
           id="path9929"
           d="m -180.53066,1039.8382 c 23.46815,39.6717 32.07973,92.6515 30.8341,137.8843 2.30773,40.5203 2.433,81.278 6.11397,121.6492 5.58484,25.9527 32.82832,35.9369 55.649669,41.6964 31.08229,7.4635 63.1907,-0.072 93.7923997,-6.1532 83.0983303,-19.1074 157.9507313,-70.945 205.5944613,-141.6379 30.0324,-46.1394 50.76906,-99.0543 55.61039,-154.0756 -0.56699,-22.4417 -15.17396,-45.55734 -37.22104,-52.25734 -6.08584,-1.2355 -10.81112,-1.6205 -17.23709,-1.6655 -25.57301,-1.354 -41.07746,0.5524 -66.33861,-2.5108 -22.37957,-0.7668 -21.57976,-17.4912 0,-16.8893 28.14346,-1.5073 55.67813,-0.059 83.5757,-3.5795 29.31607,-9.1206 43.41402,-44.2582 34.78557,-72.5331 -15.40512,-93.1064 -71.20073,-178.9148 -151.07373,-229.4332 -45.608211,-30.2125 -98.879521,-48.01821 -153.176411,-53.8022 -30.74594,-4.89081 -64.045239,1.66789 -89.518269,19.6402 -21.57359,17.9902 -14.74077,48.2811 -17.40761,72.8624 -2.06168,38.6433 -3.07328,77.3219 -4.09854,115.9582 -3.02366,31.3713 -10.70072,63.5992 -27.19411,90.4469 -0.2963,0.5137 -9.95133,14.3098 -15.03673,18.6092 -12.75382,11.3299 -30.45471,22.1055 -29.76901,41.6342 0.43583,14.4582 -1.88406,31.0674 9.83955,42.31704 11.38413,9.6316 24.67466,20.0666 32.27534,31.8396"
           style="fill:none;stroke:#ff0000;stroke-opacity:1" />
        <path
           sodipodi:nodetypes="sccccccccccccccscccccccccscccccccccccsccccccc"
           inkscape:connector-curvature="0"
           id="path9931"
           d="m 94.05919,934.82577 c -6.57307,0.0379 -14.332971,0.2308 -17.244014,0.42922 l -5.292888,0.36071 v 39.51282 39.51288 h 16.737592 16.73759 v 18.7664 18.7663 H 56.306278 7.61509 v -19.0199 -19.0201 H -8.3616803 -14.286475 V 975.58692 937.03969 H -9.1225033 6.093498 V 917.25886 897.4781 h 49.959199 49.959193 v 18.63959 18.63965 z m -152.887231,0.18516 h -32.46077 V 896.4637 857.91652 h 32.46077 32.460766 v 38.54718 38.54723 z m -0.08194,156.21757 h -32.03554 l 0.33995,-29.5444 c 0.18693,-16.2494 0.48735,-33.4815 0.66758,-38.2935 l 0.3277,-8.7492 h 31.367891 31.367953 v 38.2935 38.2936 z"
           style="fill:none;stroke:#ff0000;stroke-width:0.50719976;stroke-opacity:1" />
      </g>
    </g>
  </g>
</svg>
