<?xml version="1.0" encoding="UTF-8" standalone="no"?>
<svg
   xmlns:dc="http://purl.org/dc/elements/1.1/"
   xmlns:cc="http://creativecommons.org/ns#"
   xmlns:rdf="http://www.w3.org/1999/02/22-rdf-syntax-ns#"
   xmlns:svg="http://www.w3.org/2000/svg"
   xmlns="http://www.w3.org/2000/svg"
   xmlns:sodipodi="http://sodipodi.sourceforge.net/DTD/sodipodi-0.dtd"
   xmlns:inkscape="http://www.inkscape.org/namespaces/inkscape"
   width="297mm"
   height="210mm"
   version="1.1"
   id="svg3466"
   sodipodi:docname="woodlight_Blatt_klein-creeper.svg"
   inkscape:version="0.92.2 5c3e80d, 2017-08-06">
  <metadata
     id="metadata3470">
    <rdf:RDF>
      <cc:Work
         rdf:about="">
        <dc:format>image/svg+xml</dc:format>
        <dc:type
           rdf:resource="http://purl.org/dc/dcmitype/StillImage" />
        <dc:title></dc:title>
      </cc:Work>
    </rdf:RDF>
  </metadata>
  <sodipodi:namedview
     pagecolor="#ffffff"
     bordercolor="#666666"
     borderopacity="1"
     objecttolerance="10"
     gridtolerance="10"
     guidetolerance="10"
     inkscape:pageopacity="0"
     inkscape:pageshadow="2"
     inkscape:window-width="1280"
     inkscape:window-height="718"
     id="namedview3468"
     showgrid="false"
     inkscape:zoom="0.25290677"
     inkscape:cx="636.57579"
     inkscape:cy="546.25164"
     inkscape:window-x="0"
     inkscape:window-y="1"
     inkscape:window-maximized="1"
     inkscape:current-layer="g5003"
     inkscape:document-units="mm"
     units="mm"
     inkscape:snap-global="true"
     inkscape:snap-nodes="false"
     inkscape:snap-bbox="true"
     inkscape:bbox-nodes="false"
     inkscape:snap-bbox-edge-midpoints="true"
     inkscape:bbox-paths="true" />
  <desc
     id="desc2">C:\Users\Andreas Reheis\Documents\Laser\woodlight\woodlight.dxf - scale = 1.000000, origin = (0.000000, 0.000000), method = file</desc>
  <defs
     id="defs16">
    <marker
       id="DistanceX"
       orient="auto"
       refX="0"
       refY="0"
       style="overflow:visible">
      <path
         d="M 3,-3 -3,3 M 0,-5 V 5"
         style="stroke:#000000;stroke-width:0.5"
         id="path4"
         inkscape:connector-curvature="0" />
    </marker>
    <pattern
       height="8"
       id="Hatch"
       patternUnits="userSpaceOnUse"
       width="8"
       x="0"
       y="0">
      <path
         d="M8 4 l-4,4"
         linecap="square"
         stroke="#000000"
         stroke-width="0.25"
         id="path7" />
      <path
         d="M6 2 l-4,4"
         linecap="square"
         stroke="#000000"
         stroke-width="0.25"
         id="path9" />
      <path
         d="M4 0 l-4,4"
         linecap="square"
         stroke="#000000"
         stroke-width="0.25"
         id="path11" />
    </pattern>
    <symbol
       id="*MODEL_SPACE" />
    <symbol
       id="*PAPER_SPACE" />
    <marker
       style="overflow:visible"
       refY="0"
       refX="0"
       orient="auto"
       id="DistanceX-7">
      <path
         inkscape:connector-curvature="0"
         id="path1545"
         style="stroke:#000000;stroke-width:0.5"
         d="M 3,-3 -3,3 M 0,-5 V 5" />
    </marker>
    <pattern
       y="0"
       x="0"
       width="8"
       patternUnits="userSpaceOnUse"
       id="Hatch-9"
       height="8">
      <path
         id="path1548"
         stroke-width="0.25"
         stroke="#000000"
         linecap="square"
         d="M8 4 l-4,4" />
      <path
         id="path1550"
         stroke-width="0.25"
         stroke="#000000"
         linecap="square"
         d="M6 2 l-4,4" />
      <path
         id="path1552"
         stroke-width="0.25"
         stroke="#000000"
         linecap="square"
         d="M4 0 l-4,4" />
    </pattern>
    <symbol
       id="*MODEL_SPACE-3" />
    <symbol
       id="*PAPER_SPACE-8" />
  </defs>
  <g
     transform="translate(-150.13702,-442.24924)"
     id="g5003"
     inkscape:label="PROFILEEDGES">
    <g
       id="g1071"
       transform="translate(8.9164507,370.0341)">
      <g
         transform="translate(7.9080523,-767.08108)"
         id="g989">
        <g
           inkscape:label="PROFILEEDGES"
           id="g3462"
           transform="translate(366.1838,-348.73809)"
           style="display:inline">
          <path
             style="fill:none;fill-opacity:1;stroke:#000000"
             d="m -182.33544,1232.3026 c -9.66336,13.5446 -10.71936,31.422 -15.92238,47.0057 -10.74327,47.4706 -19.18297,96.3191 -16.16763,145.126 3.89546,49.5125 12.52483,99.0707 28.77022,146.0196 10.33056,16.1079 32.03128,11.9528 48.38765,13.7342 40.428178,-1.0781 81.347513,2.8802 121.3765,-3.8535 43.331654,-7.3485 84.175555,-28.8899 114.206389,-61.0559 24.490261,-26.704 40.860551,-60.9064 44.811121,-97.0546 3.49701,-35.0434 -3.12133,-71.4204 -21.22666,-101.8828 -18.9346,-33.9533 -49.773517,-60.5185 -84.81794,-76.9574 -35.0302142,-17.0138 -74.506546,-21.6026 -113.081157,-20.5186 -32.388423,1.0195 -65.317513,-2.6955 -97.287643,3.5567 -3.40303,1.2818 -6.49377,3.2934 -9.04847,5.8806 z"
             id="Blatt klein"
             inkscape:connector-curvature="0" />
        </g>
        <g
           transform="translate(324.16784,71.172471)"
           id="g9933">
          <path
             sodipodi:nodetypes="sccccccccccccccscccccccccscccccccccccsccccccc"
             inkscape:connector-curvature="0"
             id="path9931"
             d="m 94.05919,934.82577 c -6.57307,0.0379 -14.332971,0.2308 -17.244014,0.42922 l -5.292888,0.36071 v 39.51282 39.51288 h 16.737592 16.73759 v 18.7664 18.7663 H 56.306278 7.61509 v -19.0199 -19.0201 H -8.3616803 -14.286475 V 975.58692 937.03969 H -9.1225033 6.093498 V 917.25886 897.4781 h 49.959199 49.959193 v 18.63959 18.63965 z m -152.887231,0.18516 h -32.46077 V 896.4637 857.91652 h 32.46077 32.460766 v 38.54718 38.54723 z m -0.08194,156.21757 h -32.03554 l 0.33995,-29.5444 c 0.18693,-16.2494 0.48735,-33.4815 0.66758,-38.2935 l 0.3277,-8.7492 h 31.367891 31.367953 v 38.2935 38.2936 z"
             style="fill:none;stroke:#ff0000;stroke-width:0.50719976;stroke-opacity:1" />
        </g>
      </g>
      <g
         id="g999"
         transform="translate(375.63249,-767.08108)">
        <g
           style="display:inline"
           transform="translate(366.1838,-348.73809)"
           id="g993"
           inkscape:label="PROFILEEDGES">
          <path
             inkscape:connector-curvature="0"
             id="path991"
             d="m -182.33544,1232.3026 c -9.66336,13.5446 -10.71936,31.422 -15.92238,47.0057 -10.74327,47.4706 -19.18297,96.3191 -16.16763,145.126 3.89546,49.5125 12.52483,99.0707 28.77022,146.0196 10.33056,16.1079 32.03128,11.9528 48.38765,13.7342 40.428178,-1.0781 81.347513,2.8802 121.3765,-3.8535 43.331654,-7.3485 84.175555,-28.8899 114.206389,-61.0559 24.490261,-26.704 40.860551,-60.9064 44.811121,-97.0546 3.49701,-35.0434 -3.12133,-71.4204 -21.22666,-101.8828 -18.9346,-33.9533 -49.773517,-60.5185 -84.81794,-76.9574 -35.0302142,-17.0138 -74.506546,-21.6026 -113.081157,-20.5186 -32.388423,1.0195 -65.317513,-2.6955 -97.287643,3.5567 -3.40303,1.2818 -6.49377,3.2934 -9.04847,5.8806 z"
             style="fill:none;fill-opacity:1;stroke:#000000" />
        </g>
        <g
           id="g997"
           transform="translate(324.16784,71.172471)">
          <path
             style="fill:none;stroke:#ff0000;stroke-width:0.50719976;stroke-opacity:1"
             d="m 94.05919,934.82577 c -6.57307,0.0379 -14.332971,0.2308 -17.244014,0.42922 l -5.292888,0.36071 v 39.51282 39.51288 h 16.737592 16.73759 v 18.7664 18.7663 H 56.306278 7.61509 v -19.0199 -19.0201 H -8.3616803 -14.286475 V 975.58692 937.03969 H -9.1225033 6.093498 V 917.25886 897.4781 h 49.959199 49.959193 v 18.63959 18.63965 z m -152.887231,0.18516 h -32.46077 V 896.4637 857.91652 h 32.46077 32.460766 v 38.54718 38.54723 z m -0.08194,156.21757 h -32.03554 l 0.33995,-29.5444 c 0.18693,-16.2494 0.48735,-33.4815 0.66758,-38.2935 l 0.3277,-8.7492 h 31.367891 31.367953 v 38.2935 38.2936 z"
             id="path995"
             inkscape:connector-curvature="0"
             sodipodi:nodetypes="sccccccccccccccscccccccccscccccccccccsccccccc" />
        </g>
      </g>
      <g
         transform="translate(15.562564,-404.37418)"
         id="g1009">
        <g
           inkscape:label="PROFILEEDGES"
           id="g1003"
           transform="translate(366.1838,-348.73809)"
           style="display:inline">
          <path
             style="fill:none;fill-opacity:1;stroke:#000000"
             d="m -182.33544,1232.3026 c -9.66336,13.5446 -10.71936,31.422 -15.92238,47.0057 -10.74327,47.4706 -19.18297,96.3191 -16.16763,145.126 3.89546,49.5125 12.52483,99.0707 28.77022,146.0196 10.33056,16.1079 32.03128,11.9528 48.38765,13.7342 40.428178,-1.0781 81.347513,2.8802 121.3765,-3.8535 43.331654,-7.3485 84.175555,-28.8899 114.206389,-61.0559 24.490261,-26.704 40.860551,-60.9064 44.811121,-97.0546 3.49701,-35.0434 -3.12133,-71.4204 -21.22666,-101.8828 -18.9346,-33.9533 -49.773517,-60.5185 -84.81794,-76.9574 -35.0302142,-17.0138 -74.506546,-21.6026 -113.081157,-20.5186 -32.388423,1.0195 -65.317513,-2.6955 -97.287643,3.5567 -3.40303,1.2818 -6.49377,3.2934 -9.04847,5.8806 z"
             id="path1001"
             inkscape:connector-curvature="0" />
        </g>
        <g
           transform="translate(324.16784,71.172471)"
           id="g1007">
          <path
             sodipodi:nodetypes="sccccccccccccccscccccccccscccccccccccsccccccc"
             inkscape:connector-curvature="0"
             id="path1005"
             d="m 94.05919,934.82577 c -6.57307,0.0379 -14.332971,0.2308 -17.244014,0.42922 l -5.292888,0.36071 v 39.51282 39.51288 h 16.737592 16.73759 v 18.7664 18.7663 H 56.306278 7.61509 v -19.0199 -19.0201 H -8.3616803 -14.286475 V 975.58692 937.03969 H -9.1225033 6.093498 V 917.25886 897.4781 h 49.959199 49.959193 v 18.63959 18.63965 z m -152.887231,0.18516 h -32.46077 V 896.4637 857.91652 h 32.46077 32.460766 v 38.54718 38.54723 z m -0.08194,156.21757 h -32.03554 l 0.33995,-29.5444 c 0.18693,-16.2494 0.48735,-33.4815 0.66758,-38.2935 l 0.3277,-8.7492 h 31.367891 31.367953 v 38.2935 38.2936 z"
             style="fill:none;stroke:#ff0000;stroke-width:0.50719976;stroke-opacity:1" />
        </g>
      </g>
      <g
         id="g1019"
         transform="translate(375.63249,-404.37418)">
        <g
           style="display:inline"
           transform="translate(366.1838,-348.73809)"
           id="g1013"
           inkscape:label="PROFILEEDGES">
          <path
             inkscape:connector-curvature="0"
             id="path1011"
             d="m -182.33544,1232.3026 c -9.66336,13.5446 -10.71936,31.422 -15.92238,47.0057 -10.74327,47.4706 -19.18297,96.3191 -16.16763,145.126 3.89546,49.5125 12.52483,99.0707 28.77022,146.0196 10.33056,16.1079 32.03128,11.9528 48.38765,13.7342 40.428178,-1.0781 81.347513,2.8802 121.3765,-3.8535 43.331654,-7.3485 84.175555,-28.8899 114.206389,-61.0559 24.490261,-26.704 40.860551,-60.9064 44.811121,-97.0546 3.49701,-35.0434 -3.12133,-71.4204 -21.22666,-101.8828 -18.9346,-33.9533 -49.773517,-60.5185 -84.81794,-76.9574 -35.0302142,-17.0138 -74.506546,-21.6026 -113.081157,-20.5186 -32.388423,1.0195 -65.317513,-2.6955 -97.287643,3.5567 -3.40303,1.2818 -6.49377,3.2934 -9.04847,5.8806 z"
             style="fill:none;fill-opacity:1;stroke:#000000" />
        </g>
        <g
           id="g1017"
           transform="translate(324.16784,71.172471)">
          <path
             style="fill:none;stroke:#ff0000;stroke-width:0.50719976;stroke-opacity:1"
             d="m 94.05919,934.82577 c -6.57307,0.0379 -14.332971,0.2308 -17.244014,0.42922 l -5.292888,0.36071 v 39.51282 39.51288 h 16.737592 16.73759 v 18.7664 18.7663 H 56.306278 7.61509 v -19.0199 -19.0201 H -8.3616803 -14.286475 V 975.58692 937.03969 H -9.1225033 6.093498 V 917.25886 897.4781 h 49.959199 49.959193 v 18.63959 18.63965 z m -152.887231,0.18516 h -32.46077 V 896.4637 857.91652 h 32.46077 32.460766 v 38.54718 38.54723 z m -0.08194,156.21757 h -32.03554 l 0.33995,-29.5444 c 0.18693,-16.2494 0.48735,-33.4815 0.66758,-38.2935 l 0.3277,-8.7492 h 31.367891 31.367953 v 38.2935 38.2936 z"
             id="path1015"
             inkscape:connector-curvature="0"
             sodipodi:nodetypes="sccccccccccccccscccccccccscccccccccccsccccccc" />
        </g>
      </g>
      <g
         transform="translate(735.70242,-767.08108)"
         id="g1029">
        <g
           inkscape:label="PROFILEEDGES"
           id="g1023"
           transform="translate(366.1838,-348.73809)"
           style="display:inline">
          <path
             style="fill:none;fill-opacity:1;stroke:#000000"
             d="m -182.33544,1232.3026 c -9.66336,13.5446 -10.71936,31.422 -15.92238,47.0057 -10.74327,47.4706 -19.18297,96.3191 -16.16763,145.126 3.89546,49.5125 12.52483,99.0707 28.77022,146.0196 10.33056,16.1079 32.03128,11.9528 48.38765,13.7342 40.428178,-1.0781 81.347513,2.8802 121.3765,-3.8535 43.331654,-7.3485 84.175555,-28.8899 114.206389,-61.0559 24.490261,-26.704 40.860551,-60.9064 44.811121,-97.0546 3.49701,-35.0434 -3.12133,-71.4204 -21.22666,-101.8828 -18.9346,-33.9533 -49.773517,-60.5185 -84.81794,-76.9574 -35.0302142,-17.0138 -74.506546,-21.6026 -113.081157,-20.5186 -32.388423,1.0195 -65.317513,-2.6955 -97.287643,3.5567 -3.40303,1.2818 -6.49377,3.2934 -9.04847,5.8806 z"
             id="path1021"
             inkscape:connector-curvature="0" />
        </g>
        <g
           transform="translate(324.16784,71.172471)"
           id="g1027">
          <path
             sodipodi:nodetypes="sccccccccccccccscccccccccscccccccccccsccccccc"
             inkscape:connector-curvature="0"
             id="path1025"
             d="m 94.05919,934.82577 c -6.57307,0.0379 -14.332971,0.2308 -17.244014,0.42922 l -5.292888,0.36071 v 39.51282 39.51288 h 16.737592 16.73759 v 18.7664 18.7663 H 56.306278 7.61509 v -19.0199 -19.0201 H -8.3616803 -14.286475 V 975.58692 937.03969 H -9.1225033 6.093498 V 917.25886 897.4781 h 49.959199 49.959193 v 18.63959 18.63965 z m -152.887231,0.18516 h -32.46077 V 896.4637 857.91652 h 32.46077 32.460766 v 38.54718 38.54723 z m -0.08194,156.21757 h -32.03554 l 0.33995,-29.5444 c 0.18693,-16.2494 0.48735,-33.4815 0.66758,-38.2935 l 0.3277,-8.7492 h 31.367891 31.367953 v 38.2935 38.2936 z"
             style="fill:none;stroke:#ff0000;stroke-width:0.50719976;stroke-opacity:1" />
        </g>
      </g>
      <g
         transform="translate(735.70242,-404.37418)"
         id="g1039">
        <g
           inkscape:label="PROFILEEDGES"
           id="g1033"
           transform="translate(366.1838,-348.73809)"
           style="display:inline">
          <path
             style="fill:none;fill-opacity:1;stroke:#000000"
             d="m -182.33544,1232.3026 c -9.66336,13.5446 -10.71936,31.422 -15.92238,47.0057 -10.74327,47.4706 -19.18297,96.3191 -16.16763,145.126 3.89546,49.5125 12.52483,99.0707 28.77022,146.0196 10.33056,16.1079 32.03128,11.9528 48.38765,13.7342 40.428178,-1.0781 81.347513,2.8802 121.3765,-3.8535 43.331654,-7.3485 84.175555,-28.8899 114.206389,-61.0559 24.490261,-26.704 40.860551,-60.9064 44.811121,-97.0546 3.49701,-35.0434 -3.12133,-71.4204 -21.22666,-101.8828 -18.9346,-33.9533 -49.773517,-60.5185 -84.81794,-76.9574 -35.0302142,-17.0138 -74.506546,-21.6026 -113.081157,-20.5186 -32.388423,1.0195 -65.317513,-2.6955 -97.287643,3.5567 -3.40303,1.2818 -6.49377,3.2934 -9.04847,5.8806 z"
             id="path1031"
             inkscape:connector-curvature="0" />
        </g>
        <g
           transform="translate(324.16784,71.172471)"
           id="g1037">
          <path
             sodipodi:nodetypes="sccccccccccccccscccccccccscccccccccccsccccccc"
             inkscape:connector-curvature="0"
             id="path1035"
             d="m 94.05919,934.82577 c -6.57307,0.0379 -14.332971,0.2308 -17.244014,0.42922 l -5.292888,0.36071 v 39.51282 39.51288 h 16.737592 16.73759 v 18.7664 18.7663 H 56.306278 7.61509 v -19.0199 -19.0201 H -8.3616803 -14.286475 V 975.58692 937.03969 H -9.1225033 6.093498 V 917.25886 897.4781 h 49.959199 49.959193 v 18.63959 18.63965 z m -152.887231,0.18516 h -32.46077 V 896.4637 857.91652 h 32.46077 32.460766 v 38.54718 38.54723 z m -0.08194,156.21757 h -32.03554 l 0.33995,-29.5444 c 0.18693,-16.2494 0.48735,-33.4815 0.66758,-38.2935 l 0.3277,-8.7492 h 31.367891 31.367953 v 38.2935 38.2936 z"
             style="fill:none;stroke:#ff0000;stroke-width:0.50719976;stroke-opacity:1" />
        </g>
      </g>
    </g>
  </g>
</svg>
