<?xml version="1.0" encoding="UTF-8" standalone="no"?>
<svg
   xmlns:dc="http://purl.org/dc/elements/1.1/"
   xmlns:cc="http://creativecommons.org/ns#"
   xmlns:rdf="http://www.w3.org/1999/02/22-rdf-syntax-ns#"
   xmlns:svg="http://www.w3.org/2000/svg"
   xmlns="http://www.w3.org/2000/svg"
   xmlns:sodipodi="http://sodipodi.sourceforge.net/DTD/sodipodi-0.dtd"
   xmlns:inkscape="http://www.inkscape.org/namespaces/inkscape"
   width="600mm"
   height="300mm"
   version="1.1"
   id="svg5007"
   sodipodi:docname="woodlight_Blatt_gross.svg"
   inkscape:version="0.92.2 5c3e80d, 2017-08-06">
  <metadata
     id="metadata5011">
    <rdf:RDF>
      <cc:Work
         rdf:about="">
        <dc:format>image/svg+xml</dc:format>
        <dc:type
           rdf:resource="http://purl.org/dc/dcmitype/StillImage" />
        <dc:title></dc:title>
      </cc:Work>
    </rdf:RDF>
  </metadata>
  <sodipodi:namedview
     pagecolor="#ffffff"
     bordercolor="#666666"
     borderopacity="1"
     objecttolerance="10"
     gridtolerance="10"
     guidetolerance="10"
     inkscape:pageopacity="0"
     inkscape:pageshadow="2"
     inkscape:window-width="1280"
     inkscape:window-height="719"
     id="namedview5009"
     showgrid="false"
     inkscape:measure-start="-1190.61,140.072"
     inkscape:measure-end="463.374,296.765"
     inkscape:zoom="0.11337526"
     inkscape:cx="-22.208873"
     inkscape:cy="555.17051"
     inkscape:window-x="0"
     inkscape:window-y="1"
     inkscape:window-maximized="1"
     inkscape:current-layer="g5003"
     inkscape:document-units="mm"
     units="mm" />
  <desc
     id="desc1543">C:\Users\Andreas Reheis\Documents\Laser\woodlight\woodlight.dxf - scale = 1.000000, origin = (0.000000, 0.000000), method = file</desc>
  <defs
     id="defs1557">
    <marker
       id="DistanceX"
       orient="auto"
       refX="0"
       refY="0"
       style="overflow:visible">
      <path
         d="M 3,-3 -3,3 M 0,-5 V 5"
         style="stroke:#000000;stroke-width:0.5"
         id="path1545"
         inkscape:connector-curvature="0" />
    </marker>
    <pattern
       height="8"
       id="Hatch"
       patternUnits="userSpaceOnUse"
       width="8"
       x="0"
       y="0">
      <path
         d="M8 4 l-4,4"
         linecap="square"
         stroke="#000000"
         stroke-width="0.25"
         id="path1548" />
      <path
         d="M6 2 l-4,4"
         linecap="square"
         stroke="#000000"
         stroke-width="0.25"
         id="path1550" />
      <path
         d="M4 0 l-4,4"
         linecap="square"
         stroke="#000000"
         stroke-width="0.25"
         id="path1552" />
    </pattern>
    <symbol
       id="*MODEL_SPACE" />
    <symbol
       id="*PAPER_SPACE" />
  </defs>
  <g
     inkscape:groupmode="layer"
     inkscape:label="PROFILEEDGES"
     id="g5003"
     transform="translate(742.94235,-595.93563)">
    <g
       id="g21">
      <path
         inkscape:tile-y0="0.067421404"
         inkscape:tile-x0="0.030934244"
         inkscape:tile-h="740.22002"
         inkscape:tile-w="490.80766"
         inkscape:tile-cy="370.17655"
         inkscape:tile-cx="245.43317"
         sodipodi:nodetypes="ccccccccccccccccccccccc"
         inkscape:connector-curvature="0"
         id="path4997"
         d="m -692.3082,1031.3114 c 23.46815,39.6717 32.07973,92.6515 30.8341,137.8843 2.30773,40.5203 2.433,81.278 6.11397,121.6492 5.58484,25.9527 32.82832,35.9369 55.64967,41.6964 31.08229,7.4635 63.1907,-0.072 93.7924,-6.1532 83.09833,-19.1074 157.95073,-70.945 205.59446,-141.6379 30.0324,-46.1394 50.76906,-99.0543 55.61039,-154.0756 -0.56699,-22.4417 -15.17396,-45.55737 -37.22104,-52.25737 -6.08584,-1.2355 -10.81112,-1.6205 -17.23709,-1.6655 -25.57301,-1.354 -41.07746,0.5524 -66.33861,-2.5108 -22.37957,-0.7668 -21.57976,-17.4912 0,-16.8893 28.14346,-1.5073 55.67813,-0.059 83.5757,-3.5795 29.31607,-9.1206 43.41402,-44.2582 34.78557,-72.5331 -15.40512,-93.1064 -71.20073,-178.9148 -151.07373,-229.4332 -45.60821,-30.2125 -98.87952,-48.01821 -153.17641,-53.8022 -30.74594,-4.89081 -64.04524,1.66789 -89.51827,19.6402 -21.57359,17.9902 -14.74077,48.2811 -17.40761,72.8624 -2.06168,38.6433 -3.07328,77.3219 -4.09854,115.9582 -3.02366,31.3713 -10.70072,63.5992 -27.19411,90.4469 -0.2963,0.5137 -9.95133,14.3098 -15.03673,18.6092 -12.75382,11.3299 -30.45471,22.1055 -29.76901,41.6342 0.43583,14.4582 -1.88406,31.0674 9.83955,42.31703 11.38413,9.63164 24.67466,20.06664 32.27534,31.83964"
         style="fill:none;stroke:#ff0000;stroke-opacity:1" />
      <path
         style="fill:none;stroke:#ff0000;stroke-opacity:1"
         d="m -198.37327,1035.6709 c 23.46815,39.6717 32.07973,92.6515 30.8341,137.8843 2.30773,40.5203 2.433,81.278 6.11397,121.6492 5.58484,25.9527 32.82832,35.9369 55.64967,41.6964 31.082293,7.4635 63.190703,-0.072 93.792403,-6.1532 83.09833,-19.1074 157.950727,-70.945 205.594457,-141.6379 30.0324,-46.1394 50.76906,-99.0543 55.61039,-154.0756 -0.56699,-22.4417 -15.17396,-45.5574 -37.22104,-52.2574 -6.08584,-1.2355 -10.81112,-1.6205 -17.23709,-1.6655 -25.57301,-1.354 -41.07746,0.5524 -66.33861,-2.5108 -22.37957,-0.7668 -21.57976,-17.4912 0,-16.8893 28.14346,-1.5073 55.67813,-0.059 83.5757,-3.5795 29.31607,-9.1206 43.41402,-44.2582 34.78557,-72.5331 C 231.38113,792.4921 175.58552,706.6837 95.712523,656.1653 50.104313,625.9528 -3.1669967,608.14709 -57.463887,602.3631 c -30.74594,-4.89081 -64.045243,1.66789 -89.518273,19.6402 -21.57359,17.9902 -14.74077,48.2811 -17.40761,72.8624 -2.06168,38.6433 -3.07328,77.3219 -4.09854,115.9582 -3.02366,31.3713 -10.70072,63.5992 -27.19411,90.4469 -0.2963,0.5137 -9.95133,14.3098 -15.03673,18.6092 -12.75382,11.3299 -30.45471,22.1055 -29.76901,41.6342 0.43583,14.4582 -1.88406,31.0674 9.83955,42.317 11.38413,9.6317 24.67466,20.0667 32.27534,31.8397"
         id="path17"
         inkscape:connector-curvature="0"
         sodipodi:nodetypes="ccccccccccccccccccccccc"
         inkscape:tile-cx="245.43317"
         inkscape:tile-cy="370.17655"
         inkscape:tile-w="490.80766"
         inkscape:tile-h="740.22002"
         inkscape:tile-x0="0.030934244"
         inkscape:tile-y0="0.067421404" />
    </g>
    <g
       id="g27"
       transform="translate(1211.5563,8.8202666)">
      <path
         style="fill:none;stroke:#ff0000;stroke-opacity:1"
         d="m -692.3082,1031.3114 c 23.46815,39.6717 32.07973,92.6515 30.8341,137.8843 2.30773,40.5203 2.433,81.278 6.11397,121.6492 5.58484,25.9527 32.82832,35.9369 55.64967,41.6964 31.08229,7.4635 63.1907,-0.072 93.7924,-6.1532 83.09833,-19.1074 157.95073,-70.945 205.59446,-141.6379 30.0324,-46.1394 50.76906,-99.0543 55.61039,-154.0756 -0.56699,-22.4417 -15.17396,-45.55737 -37.22104,-52.25737 -6.08584,-1.2355 -10.81112,-1.6205 -17.23709,-1.6655 -25.57301,-1.354 -41.07746,0.5524 -66.33861,-2.5108 -22.37957,-0.7668 -21.57976,-17.4912 0,-16.8893 28.14346,-1.5073 55.67813,-0.059 83.5757,-3.5795 29.31607,-9.1206 43.41402,-44.2582 34.78557,-72.5331 -15.40512,-93.1064 -71.20073,-178.9148 -151.07373,-229.4332 -45.60821,-30.2125 -98.87952,-48.01821 -153.17641,-53.8022 -30.74594,-4.89081 -64.04524,1.66789 -89.51827,19.6402 -21.57359,17.9902 -14.74077,48.2811 -17.40761,72.8624 -2.06168,38.6433 -3.07328,77.3219 -4.09854,115.9582 -3.02366,31.3713 -10.70072,63.5992 -27.19411,90.4469 -0.2963,0.5137 -9.95133,14.3098 -15.03673,18.6092 -12.75382,11.3299 -30.45471,22.1055 -29.76901,41.6342 0.43583,14.4582 -1.88406,31.0674 9.83955,42.31703 11.38413,9.63164 24.67466,20.06664 32.27534,31.83964"
         id="path23"
         inkscape:connector-curvature="0"
         sodipodi:nodetypes="ccccccccccccccccccccccc"
         inkscape:tile-cx="245.43317"
         inkscape:tile-cy="370.17655"
         inkscape:tile-w="490.80766"
         inkscape:tile-h="740.22002"
         inkscape:tile-x0="0.030934244"
         inkscape:tile-y0="0.067421404" />
      <path
         inkscape:tile-y0="0.067421404"
         inkscape:tile-x0="0.030934244"
         inkscape:tile-h="740.22002"
         inkscape:tile-w="490.80766"
         inkscape:tile-cy="370.17655"
         inkscape:tile-cx="245.43317"
         sodipodi:nodetypes="ccccccccccccccccccccccc"
         inkscape:connector-curvature="0"
         id="path25"
         d="m -198.37327,1035.6709 c 23.46815,39.6717 32.07973,92.6515 30.8341,137.8843 2.30773,40.5203 2.433,81.278 6.11397,121.6492 5.58484,25.9527 32.82832,35.9369 55.64967,41.6964 31.082293,7.4635 63.190703,-0.072 93.792403,-6.1532 83.09833,-19.1074 157.950727,-70.945 205.594457,-141.6379 30.0324,-46.1394 50.76906,-99.0543 55.61039,-154.0756 -0.56699,-22.4417 -15.17396,-45.5574 -37.22104,-52.2574 -6.08584,-1.2355 -10.81112,-1.6205 -17.23709,-1.6655 -25.57301,-1.354 -41.07746,0.5524 -66.33861,-2.5108 -22.37957,-0.7668 -21.57976,-17.4912 0,-16.8893 28.14346,-1.5073 55.67813,-0.059 83.5757,-3.5795 29.31607,-9.1206 43.41402,-44.2582 34.78557,-72.5331 C 231.38113,792.4921 175.58552,706.6837 95.712523,656.1653 50.104313,625.9528 -3.1669967,608.14709 -57.463887,602.3631 c -30.74594,-4.89081 -64.045243,1.66789 -89.518273,19.6402 -21.57359,17.9902 -14.74077,48.2811 -17.40761,72.8624 -2.06168,38.6433 -3.07328,77.3219 -4.09854,115.9582 -3.02366,31.3713 -10.70072,63.5992 -27.19411,90.4469 -0.2963,0.5137 -9.95133,14.3098 -15.03673,18.6092 -12.75382,11.3299 -30.45471,22.1055 -29.76901,41.6342 0.43583,14.4582 -1.88406,31.0674 9.83955,42.317 11.38413,9.6317 24.67466,20.0667 32.27534,31.8397"
         style="fill:none;stroke:#ff0000;stroke-opacity:1" />
    </g>
  </g>
</svg>
